<?xml version="1.0" standalone="no"?><!DOCTYPE svg PUBLIC "-//W3C//DTD SVG 1.1//EN" "http://www.w3.org/Graphics/SVG/1.1/DTD/svg11.dtd"><svg class="icon" width="16px" height="16.00px" viewBox="0 0 1024 1024" version="1.1" xmlns="http://www.w3.org/2000/svg"><path d="M923.4 583.2c-2.4 1-4.6 2.6-6.4 4.4l-16.8 17.6c-8.4 8.2-21 10-31.6 4.8l-33.2-14.2c-11-4.4-18.6-14.8-19-26.8v-24.8c0.2-11.2-8.8-20.4-20-20.6h-39.6c-11 0-20 9.2-20 20.6v24.8c-0.4 12-7.8 22.4-19 26.8l-33.2 14.2c-10.4 5.2-23.2 3.2-31.6-4.8l-17-17.6c-3.6-3.8-8.8-6-14-6-5.2 0-10.4 2.2-14 6l-28.2 29.2c-7.8 8.2-7.8 21 0 29.2l16.8 17.4c7.8 8 10 22.8 4.8 32.8l-13.6 34.6c-3.8 11.2-14 19-25.8 19.8h-23.8c-11.2 0.2-20 9.4-19.8 20.6v41.2c0 11.4 9 20.6 20 20.6h23.8c11 0 22.4 9 25.8 19.8l13.6 34.6c5 10.8 3.2 23.8-4.6 32.8l-17 17.4c-7.8 8.2-7.8 21 0 29.2l28.2 29.2c2.4 2.6 5.4 4.4 8.6 5.2v6.2H97.6c-12 0.2-23.6-4.6-32.2-13-8.6-8.4-13.4-20-13.4-32V322.8h871.4v260.4z m47.2 188.6c8.2 0 15 7 15 15.8v31.6c0 8.6-6.8 15.6-15 15.6h-18.2c-9 0.6-16.8 6.4-19.6 15l-10.4 26.4c-3.8 8.2-2.4 18 3.4 25l12.8 13.4c6 6.2 6 16 0 22.2l-21.4 22.2c-2.8 3-6.6 4.6-10.8 4.6-4 0-8-1.6-10.8-4.6l-12.8-13.4c-6.4-6.2-16.2-7.6-24-3.6l-25.4 10.8c-8.4 3.4-14.2 11.4-14.4 20.4v18.8c0 8.6-6.8 15.6-15.2 15.6H774c-8.6-0.2-15.2-7.2-15.2-15.6v-18.8c-0.2-9-6-17.2-14.4-20.4l-25.4-10.8c-8-4-17.6-2.6-24 3.6l-12.8 13.4c-2.8 3-6.6 4.6-10.8 4.6-4 0-8-1.6-10.8-4.6l-21.4-22.2c-5.8-6.2-5.8-16 0-22.2l12.8-13.4c6-7 7.4-16.6 3.6-25l-10.4-26.4c-2.8-8.6-10.6-14.4-19.6-15h-18.2c-8.6-0.2-15.4-7.2-15.2-15.8v-31.4c0-8.6 6.8-15.6 15.2-15.6h18.2c9-0.6 16.8-6.4 19.6-15l10.4-26.4c3.8-8.2 2.4-18-3.6-25l-12.8-13.4c-5.8-6.2-5.8-16 0-22.2l21.4-22.2c2.8-3 6.6-4.6 10.8-4.6 4 0 8 1.6 10.8 4.6l12.8 13.4c6.4 6.2 16 7.8 24 3.8l25.2-10.8c8.4-3.2 14.2-11.4 14.4-20.4v-18.8c0-8.6 6.8-15.6 15.2-15.6H804c8.2 0 15.2 7 15.2 15.6v18.8c0 8.8 6.6 17.8 14.4 20.4l25.4 10.8c7.2 4 18.2 2.4 24-3.8l12.8-13.4c2.8-3 6.6-4.6 10.8-4.6 4 0 8 1.6 10.8 4.6l21.4 22.2c5.8 6.2 5.8 16 0 22.2l-12.8 13.4c-6 6.8-7.4 16.6-3.4 25l10.4 26.4c2.4 8.2 11.2 15 19.6 15h18z m-181.4 110c41.8 0 75.6-35.2 75.6-78.6 0-43.4-33.8-78.6-75.6-78.6s-75.6 35.2-75.6 78.6c0 43.4 33.8 78.6 75.6 78.6zM176.4 471.6c0 13 11 24.2 24.6 24.2h324.4c6.4 0 12.8-2.4 17.4-7 4.6-4.6 7.2-10.8 7.2-17.2 0-13-11-24.2-24.6-24.2H201c-6.4 0-12.8 2.4-17.4 7-4.6 4.4-7.2 10.6-7.2 17.2z m0 186.8c0 13 11 24.2 24.4 24.2h262.4c6.4 0.2 12.8-2.4 17.4-7 4.6-4.6 7.2-10.8 7-17.4 0-13-11-24.2-24.4-24.2H200.8c-6.4-0.2-12.8 2.4-17.4 7-4.4 4.6-7 10.8-7 17.4z m0 186.6c0 13 11 24.2 24.4 24.2h138c13.4 0 24.2-10.8 24.4-24.2 0-13-11-24.2-24.4-24.2h-138c-13.4 0-24.2 10.8-24.4 24.2zM566.6 73.8c21.4-37.2 61.6-62.2 108-62.2 46.2 0 86.6 24.8 108 62.2H878c25.2 0 45.6 20.4 45.6 45.6v141H52V119.4c0-25.2 19.8-45.6 45.6-45.6h95.4c21.4-37.2 61.6-62.2 108-62.2 46.2 0 86.6 24.8 108 62.2h157.6zM238.8 136c0 34.6 27.8 62.2 62.2 62.2 34.6 0 62.2-27.8 62.2-62.2 0-34.6-27.8-62.2-62.2-62.2-34.6 0-62.2 27.8-62.2 62.2z m373.4 0c0 34.6 27.8 62.2 62.2 62.2 34.6 0 62.2-27.8 62.2-62.2 0-34.6-27.8-62.2-62.2-62.2-34.6 0-62.2 27.8-62.2 62.2z m0 0" fill="#ffffff" /></svg>