<svg xmlns="http://www.w3.org/2000/svg" width="16" height="16" viewBox="0 0 16 16">
  <metadata><?xpacket begin="﻿" id="W5M0MpCehiHzreSzNTczkc9d"?>
<x:xmpmeta xmlns:x="adobe:ns:meta/" x:xmptk="Adobe XMP Core 5.6-c140 79.160451, 2017/05/06-01:08:21        ">
   <rdf:RDF xmlns:rdf="http://www.w3.org/1999/02/22-rdf-syntax-ns#">
      <rdf:Description rdf:about=""/>
   </rdf:RDF>
</x:xmpmeta>
                                                                                                    
                                                                                                    
                                                                                                    
                                                                                                    
                                                                                                    
                                                                                                    
                                                                                                    
                                                                                                    
                                                                                                    
                                                                                                    
                                                                                                    
                                                                                                    
                                                                                                    
                                                                                                    
                                                                                                    
                                                                                                    
                                                                                                    
                                                                                                    
                                                                                                    
                                                                                                    
                           
<?xpacket end="w"?></metadata>
<defs>
    <style>
      .cls-1 {
        fill: #fff;
        fill-rule: evenodd;
      }
    </style>
  </defs>
  <path id="icon_outwarehouse" class="cls-1" d="M389,224H378a2,2,0,0,1-2-2V210a2,2,0,0,1,2-2h11a2,2,0,0,1,2,2v12A2,2,0,0,1,389,224Zm-9.389-7.646a0.5,0.5,0,0,0,.707,0L383,213.672V221.5a0.5,0.5,0,0,0,1,0v-7.842l2.682,2.682a0.5,0.5,0,0,0,.707-0.707l-3.535-3.536a0.5,0.5,0,0,0-.708,0,0.109,0.109,0,0,0-.009.023l-3.526,3.526A0.5,0.5,0,0,0,379.611,216.354ZM388.5,210h-10a0.5,0.5,0,0,0,0,1h10A0.5,0.5,0,0,0,388.5,210Z" transform="translate(-375.5 -208)"/>
</svg>
