<?xml version="1.0" standalone="no"?><!DOCTYPE svg PUBLIC "-//W3C//DTD SVG 1.1//EN" "http://www.w3.org/Graphics/SVG/1.1/DTD/svg11.dtd"><svg class="icon" width="16px" height="16.00px" viewBox="0 0 1024 1024" version="1.1" xmlns="http://www.w3.org/2000/svg"><path d="M512 0a512 512 0 1 0 0 1024A512 512 0 0 0 512 0z m248.768 566.656l-225.472 225.472c-0.256 0.256-0.32 0.576-0.512 0.832a32 32 0 0 1-22.784 9.28 31.808 31.808 0 0 1-22.784-9.344c-0.256-0.256-0.32-0.576-0.512-0.832L263.232 566.656a32 32 0 0 1 45.248-45.248L512 724.864l203.52-203.52a32 32 0 0 1 45.248 45.312z m0-290.304L535.296 501.824l-0.512 0.832A32 32 0 0 1 512 512a32 32 0 0 1-22.784-9.344l-0.512-0.832-225.472-225.472a32 32 0 0 1 45.248-45.248L512 434.624l203.52-203.52a32 32 0 0 1 45.248 45.248z" fill="#ffffff" /></svg>