<?xml version="1.0" standalone="no"?><!DOCTYPE svg PUBLIC "-//W3C//DTD SVG 1.1//EN" "http://www.w3.org/Graphics/SVG/1.1/DTD/svg11.dtd"><svg class="icon" width="16px" height="15.56px" viewBox="0 0 1053 1024" version="1.1" xmlns="http://www.w3.org/2000/svg"><path d="M134.546634 95.893769 429.996408 95.893769l28.071532 0 138.915701 0 156.535467 0 166.984446 0c27.041959 0 49.167325-19.837736 49.167325-44.084941 0-24.247205-22.125366-44.084941-49.167325-44.084941L753.523287 7.723886 596.985034 7.723886l-138.915701 0-28.071532 0L134.546634 7.723886c-27.041959 0-49.167325 19.839129-49.167325 44.084941C85.379309 76.056033 107.504675 95.893769 134.546634 95.893769zM429.756778 493.94695 429.613279 494.023576 429.797181 494.023576ZM998.023837 184.286563 54.246922 184.286563c-27.041959 0-49.167325 22.125366-49.167325 49.167325l0 131.666895 0 470.319717 0 131.668288c0 27.041959 22.125366 49.167325 49.167325 49.167325l943.776914 0c27.041959 0 49.167325-22.125366 49.167325-49.167325l0-131.668288L1047.191162 365.120784l0-131.666895C1047.191162 206.411929 1025.065796 184.286563 998.023837 184.286563zM687.895336 645.420931 687.895336 645.420931c27.041959 0 49.167325 19.833556 49.167325 44.082155s-22.125366 44.087728-49.167325 44.087728l-117.676408 0 0 106.53083c0 27.041959-19.837736 49.170112-44.087728 49.170112-24.244419 0-44.084941-22.128152-44.084941-49.170112l0-106.53083-117.677801 0c-27.041959 0-49.167325-19.836343-49.167325-44.087728 0-24.241633 22.125366-44.082155 49.167325-44.082155l117.677801 0 0-63.227472-117.677801 0c-27.041959 0-49.167325-19.836343-49.167325-44.087728 0-24.244419 22.125366-44.083548 49.167325-44.083548l65.242035 0-24.098133-45.974117-0.048762 0.026471-28.563331-54.492125c-12.55828-23.949061-5.256533-52.757595 16.21821-64.014629 21.474743-11.257034 49.316397-0.870748 61.871891 23.081099l22.978003 43.838346c0.402634 0.692419 0.789943 1.39459 1.168893 2.112087l23.639771 45.096403 0.144893-0.076626 23.889154 45.584022 23.89194-45.582629 0.143499 0.075233 23.639771-45.096403c0.377556-0.720283 0.771831-1.423848 1.175859-2.119053l22.973823-43.828593c12.556887-23.951848 40.394362-34.338133 61.870498-23.081099 21.474743 11.257034 28.77231 40.064174 16.220996 64.014629l-28.563331 54.492125-0.050155-0.026471-24.098133 45.974117-0.144893-0.076626-0.036223 0.076626 0.182509 0 0.001393 0 63.876702 0c27.041959 0 49.167325 19.839129 49.167325 44.083548 0 24.247205-22.125366 44.087728-49.167325 44.087728l-117.676408 0 0 63.227472 117.676408 0L687.895336 645.420931z" fill="#ffffff" /></svg>