<?xml version="1.0" standalone="no"?><!DOCTYPE svg PUBLIC "-//W3C//DTD SVG 1.1//EN" "http://www.w3.org/Graphics/SVG/1.1/DTD/svg11.dtd"><svg t="1537256749918" class="icon" style="" viewBox="0 0 1024 1024" version="1.1" xmlns="http://www.w3.org/2000/svg" p-id="1871" xmlns:xlink="http://www.w3.org/1999/xlink" width="200" height="200"><defs><style type="text/css"></style></defs><path d="M132.6 98.2H900c26.4 0 48-19.6 48-43.6S926.4 10.8 900 10.8H132.6c-26.4 0-48 19.6-48 43.6s21.6 43.8 48 43.8zM420.8 492.6h0.2-0.2zM975.6 185.8H54.2c-26.4 0-48 22-48 48.8v726.8c0 26.8 21.6 48.8 48 48.8h921.4c26.4 0 48-22 48-48.8V234.6c0-27-21.6-48.8-48-48.8zM673 642.6c26.4 0 48 19.6 48 43.6s-21.6 43.6-48 43.6H558v105.6c0 26.8-19.4 48.8-43 48.8s-43-22-43-48.8V730h-114.8c-26.4 0-48-19.6-48-43.6s21.6-43.6 48-43.6H472V580h-114.8c-26.4 0-48-19.6-48-43.6s21.6-43.6 48-43.6h63.6l-23.6-45.6-27.8-54c-12.2-23.8-5.2-52.2 15.8-63.4 21-11.2 48.2-0.8 60.4 22.8L468 396c0.4 0.6 0.8 1.4 1.2 2l23 44.6h0.2l23.4 45.2 23.4-45.2h0.2l23-44.6c0.4-0.8 0.8-1.4 1.2-2l22.4-43.4c12.2-23.8 39.4-34 60.4-22.8s28 39.6 15.8 63.4l-27.8 54-23.6 45.6h-0.2 62.6c26.4 0 48 19.6 48 43.6s-21.6 43.6-48 43.6H558v62.6h115z" fill="#bfcbd9" p-id="1872"></path></svg>