<?xml version="1.0" encoding="UTF-8" standalone="no"?>
<!DOCTYPE svg PUBLIC "-//W3C//DTD SVG 1.1//EN" "http://www.w3.org/Graphics/SVG/1.1/DTD/svg11.dtd">
<svg width="100%" height="100%" viewBox="0 0 16 16" version="1.1" xmlns="http://www.w3.org/2000/svg" xmlns:xlink="http://www.w3.org/1999/xlink" xml:space="preserve" xmlns:serif="http://www.serif.com/" style="fill-rule:evenodd;clip-rule:evenodd;stroke-linejoin:round;stroke-miterlimit:1.41421;">
    <g transform="matrix(1,0,0,1,-790,-153)">
        <path id="圆角矩形-7-拷贝-2" serif:id="圆角矩形 7 拷贝 2" d="M805.5,153C805.778,153.002 806,153.225 806,153.5L806,168.5C806,168.775 805.778,168.998 805.5,169L790.5,169C790.224,169 790,168.776 790,168.5L790,153.5C790,153.225 790.222,153.002 790.5,153L805.5,153ZM797.782,164.575L794.586,161.379C794.39,161.183 794.074,161.183 793.879,161.379C793.683,161.574 793.683,161.891 793.879,162.086L797.347,165.554C797.366,165.587 797.39,165.618 797.418,165.646C797.614,165.842 797.93,165.842 798.125,165.646L801.661,162.111C801.856,161.916 801.856,161.599 801.661,161.404C801.466,161.209 801.149,161.209 800.954,161.404L797.782,164.575ZM797.782,160.575L794.586,157.379C794.39,157.183 794.074,157.183 793.879,157.379C793.683,157.574 793.683,157.891 793.879,158.086L797.347,161.554C797.366,161.587 797.39,161.618 797.418,161.646C797.614,161.842 797.93,161.842 798.125,161.646L801.661,158.111C801.856,157.916 801.856,157.599 801.661,157.404C801.466,157.209 801.149,157.209 800.954,157.404L797.782,160.575Z" style="fill:white;"/>
    </g>
</svg>
