<?xml version="1.0" encoding="utf-8"?>
<!-- Generator: Adobe Illustrator 17.0.0, SVG Export Plug-In . SVG Version: 6.00 Build 0)  -->
<!DOCTYPE svg PUBLIC "-//W3C//DTD SVG 1.1//EN" "http://www.w3.org/Graphics/SVG/1.1/DTD/svg11.dtd">
<svg version="1.1" id="图层_1" xmlns="http://www.w3.org/2000/svg" xmlns:xlink="http://www.w3.org/1999/xlink" x="0px" y="0px"
	 width="16px" height="16px" viewBox="0 0 16 16" enable-background="new 0 0 16 16" xml:space="preserve">
<path d="M14,0H2C0.895,0,0,0.895,0,2v12c0,1.105,0.895,2,2,2h12c1.105,0,2-0.895,2-2V2C16,0.895,15.105,0,14,0z M9.999,12.058h-3
	c-0.023,0-0.045-0.006-0.068-0.007v-0.015c-0.224-0.051-0.394-0.242-0.394-0.481s0.17-0.43,0.394-0.481v-0.022
	c0.023,0.001,0.044,0.007,0.068,0.007h0.008c0.012-0.001,0.022-0.007,0.034-0.007c0.012,0,0.022,0.006,0.034,0.007h2.924
	c1.105,0,2-0.895,2-2c0-1.105-0.895-2-2-2H5.227L6.519,8.35c0.192,0.199,0.186,0.515-0.012,0.707c-0.194,0.187-0.501,0.187-0.695,0
	L3.691,6.936C3.596,6.84,3.543,6.709,3.546,6.573C3.542,6.437,3.595,6.306,3.691,6.21l0.147-0.147V6.058h0.005l1.97-1.97
	C6.012,3.896,6.328,3.902,6.52,4.1c0.187,0.194,0.187,0.501,0,0.695L5.256,6.058h4.742c1.657,0,3,1.343,3,3
	C12.999,10.714,11.656,12.058,9.999,12.058z"/>
</svg>
