<?xml version="1.0" standalone="no"?><!DOCTYPE svg PUBLIC "-//W3C//DTD SVG 1.1//EN" "http://www.w3.org/Graphics/SVG/1.1/DTD/svg11.dtd"><svg class="icon" width="16px" height="16.00px" viewBox="0 0 1024 1024" version="1.1" xmlns="http://www.w3.org/2000/svg"><path d="M511.910736 1023.821471a63.988842 63.988842 0 0 1-63.988842-63.988842V319.94421a63.988842 63.988842 0 0 1 127.977684 0v639.888419a63.988842 63.988842 0 0 1-63.988842 63.988842z" fill="#ffffff" /><path d="M466.670624 1005.07274a63.924853 63.924853 0 0 1 0-90.480222l290.253387-290.253387a63.924853 63.924853 0 1 1 90.480223 90.480222l-290.253387 290.253387a63.924853 63.924853 0 0 1-90.480223 0z" fill="#ffffff" /><path d="M557.150847 1005.07274a63.924853 63.924853 0 0 1-90.480223 0l-290.253387-290.253387a63.924853 63.924853 0 1 1 90.480223-90.480222l290.253387 290.253387a63.924853 63.924853 0 0 1 0 90.480222zM895.843787 0H127.977684a127.977684 127.977684 0 0 0-127.977684 127.977684v255.955368h127.977684V191.966526a63.988842 63.988842 0 0 1 63.988842-63.988842h639.888419a63.988842 63.988842 0 0 1 63.988842 63.988842v191.966526h127.977684V127.977684a127.977684 127.977684 0 0 0-127.977684-127.977684z" fill="#ffffff" /><path d="M63.988842 381.949398m-63.988842 0a63.988842 63.988842 0 1 0 127.977684 0 63.988842 63.988842 0 1 0-127.977684 0Z" fill="#ffffff" /><path d="M959.832629 381.949398m-63.988842 0a63.988842 63.988842 0 1 0 127.977684 0 63.988842 63.988842 0 1 0-127.977684 0Z" fill="#ffffff" /></svg>