<?xml version="1.0" standalone="no"?><!DOCTYPE svg PUBLIC "-//W3C//DTD SVG 1.1//EN" "http://www.w3.org/Graphics/SVG/1.1/DTD/svg11.dtd"><svg class="icon" width="16px" height="16.00px" viewBox="0 0 1024 1024" version="1.1" xmlns="http://www.w3.org/2000/svg"><path d="M896 0h-64v320a128 128 0 0 1-128 128H320a128 128 0 0 1-128-128V0H128a128 128 0 0 0-128 128v768a128 128 0 0 0 128 128h768a128 128 0 0 0 128-128V128a128 128 0 0 0-128-128z" fill="#ffffff" /><path d="M256 0v329.152C256 359.424 285.056 384 320.896 384h382.208C738.944 384 768 359.424 768 329.152V0H256z m384 288.832a32 32 0 0 1-64 0v-128a32 32 0 0 1 64 0v128z" fill="#ffffff" /></svg>