<?xml version="1.0" encoding="utf-8"?>
<!-- Generator: Adobe Illustrator 17.0.0, SVG Export Plug-In . SVG Version: 6.00 Build 0)  -->
<!DOCTYPE svg PUBLIC "-//W3C//DTD SVG 1.1//EN" "http://www.w3.org/Graphics/SVG/1.1/DTD/svg11.dtd">
<svg version="1.1" id="图层_1" xmlns="http://www.w3.org/2000/svg" xmlns:xlink="http://www.w3.org/1999/xlink" x="0px" y="0px"
	 width="16px" height="16px" viewBox="0 0 16 16" enable-background="new 0 0 16 16" xml:space="preserve">
<circle cx="8" cy="3" r="3"/>
<path d="M16,15.5c0,0.276-0.224,0.5-0.5,0.5h-15C0.224,16,0,15.776,0,15.5l0,0C0,15.224,0.224,15,0.5,15h15
	C15.776,15,16,15.224,16,15.5L16,15.5z"/>
<polygon points="7,5.094 9,5.094 11,10.094 5,10.094 "/>
<path d="M13,8H3c-1.657,0-3,1.343-3,3v2h16v-2C16,9.343,14.657,8,13,8z"/>
</svg>
