<svg xmlns="http://www.w3.org/2000/svg" width="16" height="15.969" viewBox="0 0 16 15.969">
  <metadata><?xpacket begin="﻿" id="W5M0MpCehiHzreSzNTczkc9d"?>
<x:xmpmeta xmlns:x="adobe:ns:meta/" x:xmptk="Adobe XMP Core 5.6-c140 79.160451, 2017/05/06-01:08:21        ">
   <rdf:RDF xmlns:rdf="http://www.w3.org/1999/02/22-rdf-syntax-ns#">
      <rdf:Description rdf:about=""/>
   </rdf:RDF>
</x:xmpmeta>
                                                                                                    
                                                                                                    
                                                                                                    
                                                                                                    
                                                                                                    
                                                                                                    
                                                                                                    
                                                                                                    
                                                                                                    
                                                                                                    
                                                                                                    
                                                                                                    
                                                                                                    
                                                                                                    
                                                                                                    
                                                                                                    
                                                                                                    
                                                                                                    
                                                                                                    
                                                                                                    
                           
<?xpacket end="w"?></metadata>
<defs>
    <style>
      .cls-1 {
        fill: #fff;
        fill-rule: evenodd;
      }
    </style>
  </defs>
  <path id="icon_export" class="cls-1" d="M1804,163.012h16V167a2,2,0,0,1-2,2h-12a2,2,0,0,1-2-2v-3.988Zm3-5.989h10a1,1,0,0,1,1,1V166a1,1,0,0,1-1,1h-10a1,1,0,0,1-1-1v-7.981A1,1,0,0,1,1807,157.023Zm5-3.992a1,1,0,0,1,1,1v9.977a1,1,0,1,1-2,0v-9.977A1,1,0,0,1,1812,153.031Zm3.54,5.926-4.25-4.234a1,1,0,0,1,0-1.411,1.008,1.008,0,0,1,1.42,0l4.24,4.234A1,1,0,0,1,1815.54,158.957Zm-2.83-4.222-4.25,4.234a1,1,0,0,1-1.41-1.411l4.24-4.234a1.008,1.008,0,0,1,1.42,0A1,1,0,0,1,1812.71,154.735Zm6.29,7.279a1,1,0,1,1-1,1A1,1,0,0,1,1819,162.014Zm-14,0a1,1,0,1,1-1,1A1,1,0,0,1,1805,162.014Z" transform="translate(-1804 -153.031)"/>
</svg>
