<svg xmlns="http://www.w3.org/2000/svg" width="20.03" height="20" viewBox="0 0 20.03 20">
  <metadata><?xpacket begin="﻿" id="W5M0MpCehiHzreSzNTczkc9d"?>
<x:xmpmeta xmlns:x="adobe:ns:meta/" x:xmptk="Adobe XMP Core 5.6-c140 79.160451, 2017/05/06-01:08:21        ">
   <rdf:RDF xmlns:rdf="http://www.w3.org/1999/02/22-rdf-syntax-ns#">
      <rdf:Description rdf:about=""/>
   </rdf:RDF>
</x:xmpmeta>
                                                                                                    
                                                                                                    
                                                                                                    
                                                                                                    
                                                                                                    
                                                                                                    
                                                                                                    
                                                                                                    
                                                                                                    
                                                                                                    
                                                                                                    
                                                                                                    
                                                                                                    
                                                                                                    
                                                                                                    
                                                                                                    
                                                                                                    
                                                                                                    
                                                                                                    
                                                                                                    
                           
<?xpacket end="w"?></metadata>
<defs>
    <style>
      .cls-1 {
        fill: #979999;
        fill-rule: evenodd;
      }
    </style>
  </defs>
  <path id="icon_add_del" class="cls-1" d="M1068.93,812.389a1.091,1.091,0,0,1-.21.322s-0.01,0-.01,0l-4.23,4.234a1,1,0,0,1-1.42-1.414L1065.6,813H1054a1,1,0,0,1,0-2h11.63l-2.37-2.362a0.95,0.95,0,0,1,0-1.357,0.963,0.963,0,0,1,1.36,0l3.91,3.889a0.909,0.909,0,0,1,.19.123A1,1,0,0,1,1068.93,812.389Zm-15.7,4.885a0.919,0.919,0,0,1,1.31,0,0.947,0.947,0,0,1,0,1.324l-2.37,2.4H1064a1,1,0,0,1,0,2h-11.56l2.29,2.327a0.978,0.978,0,0,1,0,1.38,0.952,0.952,0,0,1-1.36,0l-3.71-3.776A1,1,0,0,1,1049,822c0-.038.02-0.07,0.02-0.106a1,1,0,0,1,.28-0.706,0.964,0.964,0,0,1,.22-0.163Z" transform="translate(-1049 -807)"/>
</svg>
