<?xml version="1.0" standalone="no"?><!DOCTYPE svg PUBLIC "-//W3C//DTD SVG 1.1//EN" "http://www.w3.org/Graphics/SVG/1.1/DTD/svg11.dtd"><svg class="icon" width="16px" height="16.00px" viewBox="0 0 1024 1024" version="1.1" xmlns="http://www.w3.org/2000/svg"><path d="M512 0a512 512 0 1 0 0 1024A512 512 0 0 0 512 0z m192 588.736a32 32 0 0 1 0 64H544v134.528a32 32 0 0 1-64 0v-134.528H320a32 32 0 0 1 0-64h160v-128H320a32 32 0 0 1 0-64h125.248L307.84 259.392a32 32 0 0 1 45.248-45.248l157.44 157.44c0.512 0 0.96-0.32 1.472-0.32 0.384 0 0.704 0.192 1.024 0.192l157.376-157.376a32 32 0 0 1 45.248 45.248L578.304 396.736H704a32 32 0 0 1 0 64H544v128H704z" fill="#ffffff" /></svg>