<svg xmlns="http://www.w3.org/2000/svg" width="16" height="16" viewBox="0 0 16 16">
  <metadata><?xpacket begin="﻿" id="W5M0MpCehiHzreSzNTczkc9d"?>
<x:xmpmeta xmlns:x="adobe:ns:meta/" x:xmptk="Adobe XMP Core 5.6-c140 79.160451, 2017/05/06-01:08:21        ">
   <rdf:RDF xmlns:rdf="http://www.w3.org/1999/02/22-rdf-syntax-ns#">
      <rdf:Description rdf:about=""/>
   </rdf:RDF>
</x:xmpmeta>
                                                                                                    
                                                                                                    
                                                                                                    
                                                                                                    
                                                                                                    
                                                                                                    
                                                                                                    
                                                                                                    
                                                                                                    
                                                                                                    
                                                                                                    
                                                                                                    
                                                                                                    
                                                                                                    
                                                                                                    
                                                                                                    
                                                                                                    
                                                                                                    
                                                                                                    
                                                                                                    
                           
<?xpacket end="w"?></metadata>
<defs>
    <style>
      .cls-1 {
        fill: #fff;
        fill-rule: evenodd;
      }
    </style>
  </defs>
  <path id="圆角矩形_17" data-name="圆角矩形 17" class="cls-1" d="M273,224H262a2,2,0,0,1-2-2V210a2,2,0,0,1,2-2h11a2,2,0,0,1,2,2v12A2,2,0,0,1,273,224Zm-1.611-8.34a0.5,0.5,0,0,0-.707,0L268,218.342V210.5a0.5,0.5,0,0,0-1,0v7.828l-2.682-2.682a0.5,0.5,0,0,0-.707.708l3.526,3.526a0.077,0.077,0,0,0,.01.023,0.5,0.5,0,0,0,.707,0l3.535-3.536A0.5,0.5,0,0,0,271.389,215.66ZM272.5,221h-10a0.5,0.5,0,0,0,0,1h10A0.5,0.5,0,0,0,272.5,221Z" transform="translate(-259.5 -208)"/>
</svg>
