<?xml version="1.0" standalone="no"?><!DOCTYPE svg PUBLIC "-//W3C//DTD SVG 1.1//EN" "http://www.w3.org/Graphics/SVG/1.1/DTD/svg11.dtd"><svg t="1538203141035" class="icon" style="" viewBox="0 0 1102 1024" version="1.1" xmlns="http://www.w3.org/2000/svg" p-id="1606" xmlns:xlink="http://www.w3.org/1999/xlink" width="215.234375" height="200"><defs><style type="text/css"></style></defs><path d="M852.598154 452.450462c66.796308 0 118.468923 23.945846 155.017846 74.358153 31.507692 42.850462 47.891692 100.824615 47.891692 172.662154 0 70.577231-16.384 128.551385-47.891692 172.662154-36.548923 47.891692-88.221538 73.097846-155.017846 73.097846-68.056615 0-119.729231-25.206154-155.017846-73.097846-32.768-45.371077-47.891692-102.084923-47.891693-172.662154 0-71.837538 15.123692-129.811692 47.891693-172.662154 35.288615-50.412308 86.961231-74.358154 155.017846-74.358153zM744.211692 27.726769h80.659693l-504.123077 935.148308h-81.92L744.211692 27.726769zM212.361846 45.371077c66.796308 0 118.468923 23.945846 155.017846 74.358154 31.507692 42.850462 47.891692 100.824615 47.891693 172.662154 0 70.577231-16.384 128.551385-47.891693 172.662153-36.548923 47.891692-88.221538 73.097846-155.017846 73.097847-68.056615 0-119.729231-25.206154-155.017846-73.097847C24.576 419.682462 9.452308 362.968615 9.452308 292.391385c0-71.837538 15.123692-129.811692 47.891692-172.662154C92.632615 69.316923 144.305231 45.371077 212.361846 45.371077z m640.236308 475.136c-39.069538 0-66.796308 17.644308-84.440616 52.932923-16.384 30.247385-23.945846 71.837538-23.945846 126.030769 0 51.672615 7.561846 93.262769 23.945846 123.510154 17.644308 35.288615 45.371077 54.193231 84.440616 54.193231 37.809231 0 65.536-18.904615 84.440615-55.453539 15.123692-30.247385 23.945846-70.577231 23.945846-122.249846 0-52.932923-8.822154-94.523077-23.945846-124.770461-18.904615-36.548923-46.631385-54.193231-84.440615-54.193231zM212.361846 113.427692c-39.069538 0-66.796308 17.644308-84.440615 52.932923-16.384 30.247385-23.945846 71.837538-23.945846 126.03077 0 51.672615 7.561846 93.262769 23.945846 123.510153 17.644308 35.288615 45.371077 54.193231 84.440615 54.193231 37.809231 0 65.536-18.904615 84.440616-55.453538 15.123692-30.247385 23.945846-70.577231 23.945846-122.249846 0-52.932923-8.822154-94.523077-25.206154-124.770462-17.644308-36.548923-45.371077-54.193231-83.180308-54.193231z" p-id="1607" fill="#bdbdbd"></path></svg>