<?xml version="1.0" standalone="no"?><!DOCTYPE svg PUBLIC "-//W3C//DTD SVG 1.1//EN" "http://www.w3.org/Graphics/SVG/1.1/DTD/svg11.dtd"><svg class="icon" width="16px" height="16.00px" viewBox="0 0 1024 1024" version="1.1" xmlns="http://www.w3.org/2000/svg"><path d="M87.9104 309.76l343.9616 166.0928a51.2 51.2 0 0 1 28.928 46.08v407.6544a25.6 25.6 0 0 1-38.144 22.3232L77.2608 757.248A51.2 51.2 0 0 1 51.2 712.704V332.8a25.6 25.6 0 0 1 36.7104-23.04zM153.6 460.8v51.2l204.8 102.4v-51.2L153.6 460.8z m352.9728-405.504l375.0912 159.0784a22.272 22.272 0 0 1 0 41.6256L506.5728 415.1296c-12.8 5.4272-27.5456 5.4272-40.3456 0L91.136 256a22.272 22.272 0 0 1 0-41.6256L466.2272 55.296c12.8-5.4784 27.5456-5.4784 40.3456 0z m378.3168 254.464A25.6 25.6 0 0 1 921.6 332.8v379.9552a51.2 51.2 0 0 1-26.0608 44.6464l-345.3952 194.6112A25.6 25.6 0 0 1 512 929.792v-407.7568a51.2 51.2 0 0 1 28.928-46.08l343.9616-166.144z" fill="#ffffff" /></svg>