<?xml version="1.0" standalone="no"?><!DOCTYPE svg PUBLIC "-//W3C//DTD SVG 1.1//EN" "http://www.w3.org/Graphics/SVG/1.1/DTD/svg11.dtd"><svg t="1537252374908" class="icon" style="" viewBox="0 0 1024 1024" version="1.1" xmlns="http://www.w3.org/2000/svg" p-id="2720" xmlns:xlink="http://www.w3.org/1999/xlink" width="200" height="200"><defs><style type="text/css"></style></defs><path d="M999.822222 292.295111l-447.146666 205.596445a17.066667 17.066667 0 0 0-9.955556 15.473777v491.008a17.066667 17.066667 0 0 0 23.893333 15.644445L1024 818.403556V307.768889a17.066667 17.066667 0 0 0-24.177778-15.473778zM481.848889 2.161778L36.181333 213.504a17.066667 17.066667 0 0 0 0.455111 31.061333l468.423112 207.246223a17.066667 17.066667 0 0 0 13.880888-0.056889l454.997334-204.003556a17.066667 17.066667 0 0 0 0-31.118222L496.128 1.991111a17.066667 17.066667 0 0 0-14.279111 0.113778zM9.500444 796.273778l447.146667 221.980444a17.066667 17.066667 0 0 0 24.632889-15.303111V512.284444a17.066667 17.066667 0 0 0-10.24-15.644444L23.893333 302.364444A17.066667 17.066667 0 0 0 0 318.008889v463.018667a17.066667 17.066667 0 0 0 9.500444 15.303111z m141.539556-327.850667l192 95.004445v73.386666l-192-95.004444v-73.386667z" p-id="2721"></path></svg>