<?xml version="1.0" standalone="no"?><!DOCTYPE svg PUBLIC "-//W3C//DTD SVG 1.1//EN" "http://www.w3.org/Graphics/SVG/1.1/DTD/svg11.dtd"><svg class="icon" width="16px" height="16.00px" viewBox="0 0 1024 1024" version="1.1" xmlns="http://www.w3.org/2000/svg"><path d="M968.192 413.4912H506.5728L353.6896 143.2576c-13.5168-23.7568-44.3392-32.5632-68.8128-19.456-24.576 13.2096-33.4848 43.1104-19.968 66.9696l126.0544 222.6176H55.808C27.9552 413.4912 5.12 435.6096 5.12 462.7456 5.12 489.8816 27.9552 512 55.808 512h11.264L148.48 867.7376c5.12 22.2208 25.3952 38.4 49.152 38.4h628.5312c23.8592 0 44.1344-16.2816 49.152-38.4L956.928 512h11.264c27.8528 0 50.688-22.2208 50.688-49.2544 0-27.136-22.8352-49.2544-50.688-49.2544zM309.248 807.6288h-50.688V561.2544H309.248v246.3744z m152.064 0H410.624V561.2544h50.688v246.3744z m152.064 0h-50.688V561.2544H613.376v246.3744z m152.064 0H714.752V561.2544h50.688v246.3744z m0 0" fill="#ffffff" /><path d="M309.248 364.1344c0-49.2544-45.3632-98.6112-101.376-98.6112s-101.376 49.2544-101.376 98.6112h202.752z m578.3552-133.5296l-35.5328-34.5088c-39.5264-38.912-103.936-38.912-143.4624 0L535.8592 364.1344h356.864c34.9184-38.4 32.8704-97.0752-5.12-133.5296z m0 0" fill="#ffffff" /></svg>