<?xml version="1.0" standalone="no"?><!DOCTYPE svg PUBLIC "-//W3C//DTD SVG 1.1//EN" "http://www.w3.org/Graphics/SVG/1.1/DTD/svg11.dtd"><svg class="icon" width="16px" height="16.00px" viewBox="0 0 1024 1024" version="1.1" xmlns="http://www.w3.org/2000/svg"><path d="M1024 896a128 128 0 0 1-128 128H128a128 128 0 0 1-128-128V128a128 128 0 0 1 128-128h768a128 128 0 0 1 128 128v768z" fill="#ffffff" /><path d="M544 736a32 32 0 0 1-64 0v-576a32 32 0 0 1 64 0v576zM224 896a32 32 0 0 1 0-64h576a32 32 0 0 1 0 64h-576z" fill="#ffffff" /><path d="M534.656 758.656a32 32 0 0 1-45.248-45.248l180.992-180.992a32 32 0 0 1 45.248 45.248l-180.992 180.992z" fill="#ffffff" /><path d="M534.656 713.344a32 32 0 0 1-45.248 45.248L308.352 577.6a32 32 0 0 1 45.248-45.248l181.056 180.992z" fill="#ffffff" /></svg>