<?xml version="1.0" standalone="no"?><!DOCTYPE svg PUBLIC "-//W3C//DTD SVG 1.1//EN" "http://www.w3.org/Graphics/SVG/1.1/DTD/svg11.dtd"><svg t="1537253871960" class="icon" style="" viewBox="0 0 1024 1024" version="1.1" xmlns="http://www.w3.org/2000/svg" p-id="4546" xmlns:xlink="http://www.w3.org/1999/xlink" width="200" height="200"><defs><style type="text/css"></style></defs><path d="M187.733333 983.04c0 17.066667-13.653333 30.72-30.72 30.72H40.96c-17.066667 0-30.72-13.653333-30.72-30.72v-177.493333c0-17.066667 13.653333-30.72 30.72-30.72h119.466667c17.066667 0 30.72 13.653333 30.72 30.72v177.493333h-3.413334zM453.973333 983.04c0 17.066667-13.653333 30.72-30.72 30.72H307.2c-17.066667 0-30.72-13.653333-30.72-30.72V600.746667c0-17.066667 13.653333-30.72 30.72-30.72h119.466667c17.066667 0 30.72 13.653333 30.72 30.72v382.293333h-3.413334zM747.52 983.04c0 17.066667-13.653333 30.72-30.72 30.72h-119.466667c-17.066667 0-30.72-13.653333-30.72-30.72V716.8c0-17.066667 13.653333-30.72 30.72-30.72H716.8c17.066667 0 30.72 13.653333 30.72 30.72v266.24zM1013.76 983.04c0 17.066667-13.653333 30.72-30.72 30.72h-119.466667c-17.066667 0-30.72-13.653333-30.72-30.72V453.973333c0-17.066667 13.653333-30.72 30.72-30.72h119.466667c17.066667 0 30.72 13.653333 30.72 30.72v529.066667z" fill="" p-id="4547"></path><path d="M907.946667 201.386667l105.813333 102.4V10.24h-293.546667l105.813334 105.813333-238.933334 238.933334-122.88-122.88-85.333333-81.92L10.24 518.826667V682.666667L378.88 314.026667l208.213333 208.213333 81.92-81.92 215.04-215.04 23.893334-23.893333z" fill="" p-id="4548"></path></svg>