<?xml version="1.0" standalone="no"?><!DOCTYPE svg PUBLIC "-//W3C//DTD SVG 1.1//EN" "http://www.w3.org/Graphics/SVG/1.1/DTD/svg11.dtd"><svg class="icon" width="16px" height="16.00px" viewBox="0 0 1024 1024" version="1.1" xmlns="http://www.w3.org/2000/svg"><path d="M893.8496 474.90730667c3.57376-3.57376 5.64224-8.69034667 5.64224-13.74549334V34.15836445c0-5.15640889-2.29489778-10.15580445-5.98812445-13.73980445-3.56010667-3.44177778-8.43889778-5.28384-13.38709333-5.28384H452.43505778c-5.04832 0-10.16376889 2.06506667-13.73752889 5.63541333L35.68071111 423.11338667c-41.31384889 41.31953778-41.31384889 108.75676445 0 150.08768l305.08259556 304.75605333c41.35367111 41.36163555 108.74083555 41.3184 150.07402666 0l403.01681778-403.04753778z m-270.56014222-345.62275556c22.26744889-22.26517333 51.50492445-33.48138667 80.67754667-33.47228444 29.17148445 0.01592889 58.40782222 11.20711111 80.67072 33.47228444 44.53034667 44.52920889 44.53034667 116.47772445 0 161.00807111-44.52693333 44.53603555-116.81792 44.53034667-161.34940445 0-44.52579555-44.53034667-44.52579555-116.48 0-161.00807111zM429.03552 652.10254222l-63.51872-63.51872-52.18076445 52.18076445-32.67584-32.67584 52.18076445-52.18190222-65.85116445-65.85230223 26.33955556-26.33955555 65.85230222 65.85230222 35.84455112-35.84455111-65.85230223-65.85230223 26.00732445-26.00732444 56.18232888 56.18232889 49.18158223-186.22008889 36.84352 36.84352c-26.45219555 90.47153778-44.06840889 146.98382222-52.84864 169.54823111l0.66787555 0.66787556c8.77909333-4.11079111 28.17365333-10.72355555 58.18368-19.83829333l111.36455112-33.0092089 34.84330666 34.84330667-186.88568889 48.51256889 54.51548445 54.51776-26.00732445 26.00732444-63.51872-63.51644444-35.84455111 35.84455111 63.51872 63.51872-26.34183111 26.34183111z m589.87747555-185.65347555l-90.53525333-417.49504c-0.74638222-3.44405333-2.51562667-6.60138667-4.93226667-9.16024889 2.40867555 117.77820445 0.36750222 235.56664889 1.05699556 353.37329777-3.38944 29.98954667 7.16686222 62.18296889-5.98812444 90.54663112C788.39352889 618.51875555 653.76369778 749.36092445 521.47996445 882.18396445c-15.60462222 21.03637333-37.72757333 36.16881778-62.35249778 44.39381333l101.81176888 65.52917333c49.17703111 31.66321778 115.25688889 17.07576889 146.90417778-32.06144l308.25358222-479.14552889c2.73408-4.2496 3.88892445-9.50954667 2.81827556-14.44864z" fill="#ffffff" /></svg>