<?xml version="1.0" standalone="no"?><!DOCTYPE svg PUBLIC "-//W3C//DTD SVG 1.1//EN" "http://www.w3.org/Graphics/SVG/1.1/DTD/svg11.dtd"><svg class="icon" width="18px" height="18.00px" viewBox="0 0 1024 1024" version="1.1" xmlns="http://www.w3.org/2000/svg"><path d="M829.013333 553.813333c1.706667-13.653333 2.986667-27.306667 2.986667-41.813333 0-14.506667-1.28-28.16-2.986667-41.813333l90.026667-70.4c8.106667-6.4 10.24-17.92 5.12-27.306667l-85.333333-147.626667c-5.12-9.386667-16.64-12.8-26.026667-9.386666l-106.24 42.666666c-22.186667-17.066667-46.08-31.146667-72.106667-41.813333l-16.213333-113.066667A20.821333 20.821333 0 0 0 597.333333 85.333333h-170.666666c-10.666667 0-19.626667 7.68-20.906667 17.92l-16.213333 113.066667c-26.026667 10.666667-49.92 25.173333-72.106667 41.813333l-106.24-42.666666c-9.813333-3.84-20.906667 0-26.026667 9.386666l-85.333333 147.626667c-5.546667 9.386667-2.986667 20.906667 5.12 27.306667l90.026667 70.4c-1.706667 13.653333-2.986667 27.733333-2.986667 41.813333 0 14.08 1.28 28.16 2.986667 41.813333l-90.026667 70.4c-8.106667 6.4-10.24 17.92-5.12 27.306667l85.333333 147.626667c5.12 9.386667 16.64 12.8 26.026667 9.386666l106.24-42.666666c22.186667 17.066667 46.08 31.146667 72.106667 41.813333l16.213333 113.066667c1.28 10.24 10.24 17.92 20.906667 17.92h170.666666c10.666667 0 19.626667-7.68 20.906667-17.92l16.213333-113.066667c26.026667-10.666667 49.92-25.173333 72.106667-41.813333l106.24 42.666666c9.813333 3.84 20.906667 0 26.026667-9.386666l85.333333-147.626667c5.12-9.386667 2.986667-20.906667-5.12-27.306667l-90.026667-70.4zM512 661.333333c-82.346667 0-149.333333-66.986667-149.333333-149.333333s66.986667-149.333333 149.333333-149.333333 149.333333 66.986667 149.333333 149.333333-66.986667 149.333333-149.333333 149.333333z" /></svg>