<?xml version="1.0" standalone="no"?><!DOCTYPE svg PUBLIC "-//W3C//DTD SVG 1.1//EN" "http://www.w3.org/Graphics/SVG/1.1/DTD/svg11.dtd"><svg class="icon" width="16px" height="16.00px" viewBox="0 0 1024 1024" version="1.1" xmlns="http://www.w3.org/2000/svg"><path d="M42.496 917.504V396.8c0-19.456 8.704-38.4 25.6-51.2l405.504-292.352c10.752-6.656 25.6-10.752 38.4-10.752s27.648 4.096 38.4 12.8l405.504 292.352c16.896 12.8 25.6 29.696 25.6 51.2v518.144c0 36.352-27.648 64-64 64H106.496c-36.352 0.512-64-27.136-64-63.488z m320-465.92c0-36.352-27.648-64-64-64H213.504c-36.352 0-64 27.648-64 64v85.504c0 36.352 27.648 64 64 64h85.504c36.352 0 64-27.648 64-64V451.584z m0 298.496c0-36.352-27.648-64-64-64H213.504c-36.352 0-64 27.648-64 64v85.504c0 36.352 27.648 64 64 64h85.504c36.352 0 64-27.648 64-64v-85.504z m320 0c0-36.352-27.648-64-64-64h-85.504c-36.352 0-64 27.648-64 64v85.504c0 36.352 27.648 64 64 64h85.504c36.352 0 64-27.648 64-64v-85.504z" fill="#ffffff" /></svg>