<?xml version="1.0" standalone="no"?><!DOCTYPE svg PUBLIC "-//W3C//DTD SVG 1.1//EN" "http://www.w3.org/Graphics/SVG/1.1/DTD/svg11.dtd"><svg class="icon" width="16px" height="16.00px" viewBox="0 0 1024 1024" version="1.1" xmlns="http://www.w3.org/2000/svg"><path d="M805.48360684 68.14754141H216.18032802C134.17213115 68.14754141 68.14754141 134.17213115 68.14754141 215.68852461v40.32786885h126.8852458v88.64754081H68.14754141v114.83606602h126.8852458v89.13934424H68.14754141v114.83606514h126.8852458v89.13934424H68.14754141v53.36065635c0 82.13114795 66.02458974 147.5409832 148.03278661 147.5409832H805.85245918c82.13114795 0 148.03278662-66.02458974 148.03278662-147.5409832V215.68852461c-0.36885234-81.51639346-66.39344297-147.5409832-148.40163897-147.5409832z m-62.95081993 614.87704863c0 22.62295107-18.19672119 36.39344238-40.69672118 36.39344238H366.54918066c-22.5 0-40.69672119-13.77049219-40.69672207-36.39344238V673.06557412c0-20.6557374 15.00000029-38.85245859 34.42622959-45.73770556l82.74590156-37.008196s22.62295107-6.88524609 28.77049249-13.77049219c3.81147539-4.42622988 5.04098349-19.4262293 0-29.3852461-5.04098349-10.081967-46.96721279-65.16393487-46.96721367-110.90163954 0-73.89344268 49.54918008-134.13934424 109.05737695-134.13934424S642.32786885 362.24590185 642.32786885 436.26229472c0 47.58196729-46.96721279 100.20491807-50.77868819 113.36065577-4.42622988 13.15573769-4.42622988 23.11475449 0 27.54098438 6.88524609 6.88524609 24.46721279 13.77049219 24.4672128 13.7704913l92.09016386 35.77868877c18.81147568 6.88524609 34.42622959 25.69672089 34.42622959 46.35245918v9.95901591z" fill="#ffffff" /></svg>