<?xml version="1.0" standalone="no"?><!DOCTYPE svg PUBLIC "-//W3C//DTD SVG 1.1//EN" "http://www.w3.org/Graphics/SVG/1.1/DTD/svg11.dtd"><svg t="1537238913158" class="icon" style="" viewBox="0 0 1131 1024" version="1.1" xmlns="http://www.w3.org/2000/svg" p-id="1343" xmlns:xlink="http://www.w3.org/1999/xlink" width="220.8984375" height="200"><defs><style type="text/css"></style></defs><path d="M117.837586 1024h862.307646V485.054958H117.837586z m161.692354-431.164875h538.945042v54.000604H279.507836z m0 134.835729h538.945042v53.890084H279.507836z m0 134.83573h350.307646v53.890083H279.507836z m733.860035-757.909425C996.900229 53.9785 970.728835 17.639166 926.166731 0H279.507836c-70.357726 0-150.441307 35.89725-172.4129 108.752752L0 254.110089c15.296119 3.227216 26.834521 17.860208 26.834521 35.366749 0 69.738808 53.890083 141.59962 117.948106 141.59962 27.387126 0 79.1331-25.685101 100.021587-44.871562 33.554203-30.835384 82.271899-30.835384 115.848206 0 20.888486 19.186461 53.182748 44.871562 80.54777 44.871562s48.253508-25.685101 69.141994-44.871562c33.554203-30.835384 82.271899-30.835384 115.848206 0 20.888486 19.186461 30.172257 44.871562 57.470966 44.871562s71.263999-25.685101 92.152485-44.871562c33.554203-30.835384 109.216941-30.835384 142.771144 0 20.888486 19.186461 34.106808 44.871562 61.493934 44.871562 64.102232 0 129.530717-71.860813 129.530717-141.59962A36.051979 36.051979 0 0 1 1131.735958 255.591072z" p-id="1344"></path></svg>