<?xml version="1.0" standalone="no"?><!DOCTYPE svg PUBLIC "-//W3C//DTD SVG 1.1//EN" "http://www.w3.org/Graphics/SVG/1.1/DTD/svg11.dtd"><svg class="icon" width="200px" height="200.00px" viewBox="0 0 1024 1024" version="1.1" xmlns="http://www.w3.org/2000/svg"><path fill="#18CCBA" d="M921.6 768H819.2V665.6c0-28.3-22.9-51.2-51.2-51.2s-51.2 22.9-51.2 51.2V768H614.4c-28.3 0-51.2 22.9-51.2 51.2 0 28.3 22.9 51.2 51.2 51.2h102.4v102.4c0 28.3 22.9 51.2 51.2 51.2s51.2-22.9 51.2-51.2V870.4h102.4c28.3 0 51.2-22.9 51.2-51.2 0-28.3-22.9-51.2-51.2-51.2z"  /><path fill="#18CCBA" d="M460.8 307.2m-307.2 0a307.2 307.2 0 1 0 614.4 0 307.2 307.2 0 1 0-614.4 0Z"  /><path fill="#18CCBA" d="M605.1 641.1c-44.9-16.9-93.4-26.7-144.3-26.7-226.2 0-409.6 183.4-409.6 409.6h462c-32.4-42.9-52.4-95.7-52.4-153.6 0-101.1 59.2-187.8 144.3-229.3z"  /></svg>