<?xml version="1.0" standalone="no"?><!DOCTYPE svg PUBLIC "-//W3C//DTD SVG 1.1//EN" "http://www.w3.org/Graphics/SVG/1.1/DTD/svg11.dtd"><svg class="icon" width="16px" height="16.00px" viewBox="0 0 1024 1024" version="1.1" xmlns="http://www.w3.org/2000/svg"><path fill="#666666" d="M135.545092 383.656937l746.845703 0c17.452487 12.917194 17.452487 25.834388 0 38.751582L620.339474 422.408519l0 361.678366c0 38.750559 15.253402 55.957453 45.858444 51.667753l111.372553 0c52.410674 4.288676 74.213235-56.006572 65.513086-180.839695 13.101389-21.494547 26.203802-21.494547 39.307238 0 8.700149 155.00633-24.055882 228.16863-98.269118 219.591277L653.097552 874.506221c-48.061622 4.287653-72.065316-21.545712-72.065316-77.502142L581.032236 422.408519 410.698826 422.408519c13.102413 215.301578-78.615499 365.967042-275.153734 452.097702-21.85475-4.339842-26.204825-17.256012-13.102413-38.751582 179.034583-81.791841 262.051321-219.590254 248.948909-413.346119L135.545092 422.408519C113.691365 409.491325 113.691365 396.574131 135.545092 383.656937zM201.058179 164.066683l609.268324 0c26.205848 12.917194 26.205848 25.834388 0 38.750559L201.058179 202.817242C183.553503 189.901071 183.553503 176.983877 201.058179 164.066683z" /></svg>