<svg xmlns="http://www.w3.org/2000/svg" width="20" height="20" viewBox="0 0 20 20">
  <metadata><?xpacket begin="﻿" id="W5M0MpCehiHzreSzNTczkc9d"?>
<x:xmpmeta xmlns:x="adobe:ns:meta/" x:xmptk="Adobe XMP Core 5.6-c140 79.160451, 2017/05/06-01:08:21        ">
   <rdf:RDF xmlns:rdf="http://www.w3.org/1999/02/22-rdf-syntax-ns#">
      <rdf:Description rdf:about=""/>
   </rdf:RDF>
</x:xmpmeta>
                                                                                                    
                                                                                                    
                                                                                                    
                                                                                                    
                                                                                                    
                                                                                                    
                                                                                                    
                                                                                                    
                                                                                                    
                                                                                                    
                                                                                                    
                                                                                                    
                                                                                                    
                                                                                                    
                                                                                                    
                                                                                                    
                                                                                                    
                                                                                                    
                                                                                                    
                                                                                                    
                           
<?xpacket end="w"?></metadata>
<defs>
    <style>
      .cls-1 {
        fill: #18ccba;
        fill-rule: evenodd;
      }
    </style>
  </defs>
  <path id="icon_add_group" class="cls-1" d="M538,396V386a2,2,0,0,0-2-2H526a2,2,0,0,1,2-2h10a2,2,0,0,1,2,2v10A2,2,0,0,1,538,396Zm-2-8v10a2,2,0,0,1-2,2H524a2,2,0,0,1-2-2V388a2,2,0,0,1,2-2h10A2,2,0,0,1,536,388Zm-3,4h-3v-3a1,1,0,0,0-2,0v3h-3a1,1,0,0,0,0,2h3v3a1,1,0,0,0,2,0v-3h3A1,1,0,0,0,533,392Z" transform="translate(-521 -381)"/>
</svg>
