<svg xmlns="http://www.w3.org/2000/svg" width="20" height="20" viewBox="0 0 20 20">
  <metadata><?xpacket begin="﻿" id="W5M0MpCehiHzreSzNTczkc9d"?>
<x:xmpmeta xmlns:x="adobe:ns:meta/" x:xmptk="Adobe XMP Core 5.6-c140 79.160451, 2017/05/06-01:08:21        ">
   <rdf:RDF xmlns:rdf="http://www.w3.org/1999/02/22-rdf-syntax-ns#">
      <rdf:Description rdf:about=""/>
   </rdf:RDF>
</x:xmpmeta>
                                                                                                    
                                                                                                    
                                                                                                    
                                                                                                    
                                                                                                    
                                                                                                    
                                                                                                    
                                                                                                    
                                                                                                    
                                                                                                    
                                                                                                    
                                                                                                    
                                                                                                    
                                                                                                    
                                                                                                    
                                                                                                    
                                                                                                    
                                                                                                    
                                                                                                    
                                                                                                    
                           
<?xpacket end="w"?></metadata>
<defs>
    <style>
      .cls-1 {
        fill: #18ccba;
        fill-rule: evenodd;
      }
    </style>
  </defs>
  <path id="icon_add_people" class="cls-1" d="M616,499a1,1,0,0,1-1,1H602a1,1,0,0,1-1-1c0-.035.017-0.066,0.02-0.1-0.009-.133-0.02-0.265-0.02-0.4a7.5,7.5,0,0,1,5.215-7.143,4.5,4.5,0,1,1,4.57,0A7.5,7.5,0,0,1,616,498.5c0,0.135-.011.267-0.02,0.4C615.983,498.934,616,498.965,616,499Zm-13-7h-2v2a1,1,0,0,1-2,0v-2h-2a1,1,0,0,1,0-2h2v-2a1,1,0,0,1,2,0v2h2A1,1,0,0,1,603,492Z" transform="translate(-596 -481.5)"/>
</svg>
