<svg id="icon_sales_rate" xmlns="http://www.w3.org/2000/svg" width="60" height="60" viewBox="0 0 60 60">
  <metadata><?xpacket begin="﻿" id="W5M0MpCehiHzreSzNTczkc9d"?>
<x:xmpmeta xmlns:x="adobe:ns:meta/" x:xmptk="Adobe XMP Core 5.6-c140 79.160451, 2017/05/06-01:08:21        ">
   <rdf:RDF xmlns:rdf="http://www.w3.org/1999/02/22-rdf-syntax-ns#">
      <rdf:Description rdf:about=""/>
   </rdf:RDF>
</x:xmpmeta>
                                                                                                    
                                                                                                    
                                                                                                    
                                                                                                    
                                                                                                    
                                                                                                    
                                                                                                    
                                                                                                    
                                                                                                    
                                                                                                    
                                                                                                    
                                                                                                    
                                                                                                    
                                                                                                    
                                                                                                    
                                                                                                    
                                                                                                    
                                                                                                    
                                                                                                    
                                                                                                    
                           
<?xpacket end="w"?></metadata>
<defs>
    <style>
      .cls-1 {
        fill: #18ccba;
      }

      .cls-2 {
        fill: #fff;
        fill-rule: evenodd;
      }
    </style>
  </defs>
  <circle id="椭圆_3_拷贝_5" data-name="椭圆 3 拷贝 5" class="cls-1" cx="30" cy="30" r="30"/>
  <path id="形状_7" data-name="形状 7" class="cls-2" d="M1205,308h-20.01a3.007,3.007,0,0,0-2.99,3v19a3.007,3.007,0,0,0,2.99,3H1205a3.009,3.009,0,0,0,3-3V311A3.009,3.009,0,0,0,1205,308Zm-18.49,12.364c0.96-1.077,1.93-2.147,2.9-3.224l1.15-1.274a0.511,0.511,0,0,1,.35-0.164,0.452,0.452,0,0,1,.36.131l3.95,3.637,3.82-4.23h-0.02c-0.51,0-1.02,0-1.53-.006a1.2,1.2,0,0,1-.92-2.03,1.225,1.225,0,0,1,.89-0.375q2.16-.027,4.32,0a1.144,1.144,0,0,1,1.18,1.24q0.015,2.409,0,4.818a1.154,1.154,0,0,1-1.1,1.176,1.2,1.2,0,0,1-1.28-1.031,3.752,3.752,0,0,1-.03-0.581v-1.262l-4.84,5.355a0.5,0.5,0,0,1-.35.164h-0.02a0.494,0.494,0,0,1-.34-0.131l-3.94-3.634L1190.1,320c-0.57.626-1.14,1.252-1.7,1.882a1.269,1.269,0,0,1-1.37.427,1.155,1.155,0,0,1-.79-0.8A1.235,1.235,0,0,1,1186.51,320.364Zm15.56,8.241a2.4,2.4,0,0,1-.52.041h-13.83a1.755,1.755,0,0,1-1.03-.277,1.1,1.1,0,0,1-.45-0.938,1.24,1.24,0,0,1,1.48-1.221l13.78,0a2.306,2.306,0,0,1,.72.1,1.141,1.141,0,0,1,.79,1.237A1.154,1.154,0,0,1,1202.07,328.605Zm-1.11-12.616h0Z" transform="translate(-1165 -290)"/>
</svg>
