<svg id="icon_unit_price" xmlns="http://www.w3.org/2000/svg" width="60" height="60" viewBox="0 0 60 60">
  <metadata><?xpacket begin="﻿" id="W5M0MpCehiHzreSzNTczkc9d"?>
<x:xmpmeta xmlns:x="adobe:ns:meta/" x:xmptk="Adobe XMP Core 5.6-c140 79.160451, 2017/05/06-01:08:21        ">
   <rdf:RDF xmlns:rdf="http://www.w3.org/1999/02/22-rdf-syntax-ns#">
      <rdf:Description rdf:about=""/>
   </rdf:RDF>
</x:xmpmeta>
                                                                                                    
                                                                                                    
                                                                                                    
                                                                                                    
                                                                                                    
                                                                                                    
                                                                                                    
                                                                                                    
                                                                                                    
                                                                                                    
                                                                                                    
                                                                                                    
                                                                                                    
                                                                                                    
                                                                                                    
                                                                                                    
                                                                                                    
                                                                                                    
                                                                                                    
                                                                                                    
                           
<?xpacket end="w"?></metadata>
<defs>
    <style>
      .cls-1 {
        fill: #f5b06a;
      }

      .cls-2 {
        fill: #fff;
        fill-rule: evenodd;
      }
    </style>
  </defs>
  <circle id="椭圆_3_拷贝_5" data-name="椭圆 3 拷贝 5" class="cls-1" cx="30" cy="30" r="30"/>
  <path id="圆角矩形_11" data-name="圆角矩形 11" class="cls-2" d="M963,323.95V329a4,4,0,0,1-4,4H939a4,4,0,0,1-4-4v-5.05a3.484,3.484,0,0,0,0-6.9V312a4,4,0,0,1,4-4h20a4,4,0,0,1,4,4v5.05A3.484,3.484,0,0,0,963,323.95ZM954.5,315h-11a1.5,1.5,0,0,0,0,3h11A1.5,1.5,0,0,0,954.5,315Zm0,8h-11a1.5,1.5,0,0,0,0,3h11A1.5,1.5,0,0,0,954.5,323Z" transform="translate(-918 -290)"/>
</svg>
