<svg id="icon_cardmember" xmlns="http://www.w3.org/2000/svg" width="60" height="60" viewBox="0 0 60 60">
  <metadata><?xpacket begin="﻿" id="W5M0MpCehiHzreSzNTczkc9d"?>
<x:xmpmeta xmlns:x="adobe:ns:meta/" x:xmptk="Adobe XMP Core 5.6-c140 79.160451, 2017/05/06-01:08:21        ">
   <rdf:RDF xmlns:rdf="http://www.w3.org/1999/02/22-rdf-syntax-ns#">
      <rdf:Description rdf:about=""/>
   </rdf:RDF>
</x:xmpmeta>
                                                                                                    
                                                                                                    
                                                                                                    
                                                                                                    
                                                                                                    
                                                                                                    
                                                                                                    
                                                                                                    
                                                                                                    
                                                                                                    
                                                                                                    
                                                                                                    
                                                                                                    
                                                                                                    
                                                                                                    
                                                                                                    
                                                                                                    
                                                                                                    
                                                                                                    
                                                                                                    
                           
<?xpacket end="w"?></metadata>
<defs>
    <style>
      .cls-1 {
        fill: #fda998;
      }

      .cls-2 {
        fill: #fff;
        fill-rule: evenodd;
      }
    </style>
  </defs>
  <circle id="椭圆_3_拷贝_3" data-name="椭圆 3 拷贝 3" class="cls-1" cx="30" cy="30" r="30"/>
  <path id="形状_4" data-name="形状 4" class="cls-2" d="M1440.01,231.53c-0.78,0-1.52.037-2.26-.006a51.19,51.19,0,0,1-7.77-.9,1.146,1.146,0,0,1-1.01-1.029,8.625,8.625,0,0,1,.14-3.682,2.807,2.807,0,0,1,2.03-1.866c0.72-.265,1.49-0.407,2.2-0.7a8,8,0,0,0,1.9-1.034,2.266,2.266,0,0,0,.07-3.485,4.308,4.308,0,0,1-1.35-2.117,0.884,0.884,0,0,0-.28-0.439,2.248,2.248,0,0,1-.68-2.888,2.331,2.331,0,0,0,.24-0.821,27.653,27.653,0,0,1,.53-3.425c0.85-2.944,3.35-4.2,6.23-3.953a7.258,7.258,0,0,1,2.94.928,5.526,5.526,0,0,1,2.58,4.1c0.12,0.605.16,1.225,0.23,1.839a3.7,3.7,0,0,0,.36,1.539,2.258,2.258,0,0,1-.78,2.706,2.64,2.64,0,0,0-.41.781,1.23,1.23,0,0,1-.42.5,9.937,9.937,0,0,0-4.64,13.6C1439.91,231.282,1439.95,231.394,1440.01,231.53Zm8.52-13.207a8.291,8.291,0,1,1-8.2,8.235A8.269,8.269,0,0,1,1448.53,218.323Zm0.02,12.613a2.835,2.835,0,0,0,2.01-1.825c0.54-1.319,1.04-2.656,1.54-3.995a1,1,0,0,0-.71-1.292,0.946,0.946,0,0,0-1.28.66c-0.13.394-.22,0.8-0.35,1.191-0.18.535-.36,1.071-0.59,1.586a0.627,0.627,0,0,1-.45.342,1.081,1.081,0,0,1-.52-0.308,0.608,0.608,0,0,1-.15-0.271c-0.38-.9-0.75-1.806-1.13-2.709a0.726,0.726,0,0,0-.82-0.547,1.254,1.254,0,0,0-1.12.738,0.751,0.751,0,0,0,0,.491c0.47,1.336.94,2.676,1.47,3.99A2.909,2.909,0,0,0,1448.55,230.936Z" transform="translate(-1413 -190)"/>
</svg>
