<svg id="icon_order_quantity" xmlns="http://www.w3.org/2000/svg" width="60" height="60" viewBox="0 0 60 60">
  <metadata><?xpacket begin="﻿" id="W5M0MpCehiHzreSzNTczkc9d"?>
<x:xmpmeta xmlns:x="adobe:ns:meta/" x:xmptk="Adobe XMP Core 5.6-c140 79.160451, 2017/05/06-01:08:21        ">
   <rdf:RDF xmlns:rdf="http://www.w3.org/1999/02/22-rdf-syntax-ns#">
      <rdf:Description rdf:about=""/>
   </rdf:RDF>
</x:xmpmeta>
                                                                                                    
                                                                                                    
                                                                                                    
                                                                                                    
                                                                                                    
                                                                                                    
                                                                                                    
                                                                                                    
                                                                                                    
                                                                                                    
                                                                                                    
                                                                                                    
                                                                                                    
                                                                                                    
                                                                                                    
                                                                                                    
                                                                                                    
                                                                                                    
                                                                                                    
                                                                                                    
                           
<?xpacket end="w"?></metadata>
<defs>
    <style>
      .cls-1 {
        fill: #bc8dee;
      }

      .cls-2 {
        fill: #fff;
        fill-rule: evenodd;
      }
    </style>
  </defs>
  <circle id="椭圆_3_拷贝_2" data-name="椭圆 3 拷贝 2" class="cls-1" cx="30" cy="30" r="30"/>
  <path id="矩形_39" data-name="矩形 39" class="cls-2" d="M1206,234h-22a2,2,0,0,1-2-2V210a2,2,0,0,1,2-2h4a3,3,0,0,0,3,3h8a3,3,0,0,0,3-3h4a2,2,0,0,1,2,2v22A2,2,0,0,1,1206,234Zm-4-19h-14a1,1,0,0,0,0,2h14A1,1,0,0,0,1202,215Zm0,6h-14a1,1,0,0,0,0,2h14A1,1,0,0,0,1202,221Zm0,6h-14a1,1,0,0,0,0,2h14A1,1,0,0,0,1202,227Zm-3.5-18h-7a1.5,1.5,0,0,1,0-3h7A1.5,1.5,0,0,1,1198.5,209Z" transform="translate(-1165 -190)"/>
</svg>
