<svg id="icon_sales_total" xmlns="http://www.w3.org/2000/svg" width="60" height="60" viewBox="0 0 60 60">
  <metadata><?xpacket begin="﻿" id="W5M0MpCehiHzreSzNTczkc9d"?>
<x:xmpmeta xmlns:x="adobe:ns:meta/" x:xmptk="Adobe XMP Core 5.6-c140 79.160451, 2017/05/06-01:08:21        ">
   <rdf:RDF xmlns:rdf="http://www.w3.org/1999/02/22-rdf-syntax-ns#">
      <rdf:Description rdf:about=""/>
   </rdf:RDF>
</x:xmpmeta>
                                                                                                    
                                                                                                    
                                                                                                    
                                                                                                    
                                                                                                    
                                                                                                    
                                                                                                    
                                                                                                    
                                                                                                    
                                                                                                    
                                                                                                    
                                                                                                    
                                                                                                    
                                                                                                    
                                                                                                    
                                                                                                    
                                                                                                    
                                                                                                    
                                                                                                    
                                                                                                    
                           
<?xpacket end="w"?></metadata>
<defs>
    <style>
      .cls-1 {
        fill: #18ccba;
      }

      .cls-2 {
        fill: #fff;
        fill-rule: evenodd;
      }
    </style>
  </defs>
  <circle id="椭圆_3" data-name="椭圆 3" class="cls-1" cx="30" cy="30" r="30"/>
  <path id="形状_2" data-name="形状 2" class="cls-2" d="M714.37,219.911c0,1.759-4.008,3.1-9.043,3.1s-9.042-1.345-9.042-3.1,4.111-3.1,9.042-3.1c5.035,0,9.043,1.345,9.043,3.1h0Zm-19.113-13.968c5.035,0,9.043,1.345,9.043,3.1s-4.008,3.1-9.043,3.1-9.145-1.345-9.145-3.1c0-1.655,4.11-3.1,9.145-3.1h0Zm-0.1,24.315c-5.138,0-9.248-1.863-9.248-4.139v-3a1.75,1.75,0,0,1,.309-1.034c0.925,1.862,4.624,3.207,8.94,3.207v4.967Zm0-6.105c-5.138,0-9.248-1.862-9.248-4.138v-3a2.007,2.007,0,0,1,.309-1.035c0.925,1.863,4.624,3.208,8.94,3.208v4.966Zm0.1-5.9c-5.138,0-9.351-1.863-9.351-4.139v-3a3.072,3.072,0,0,1,.206-1.035c0.205,1.759,4.213,3,9.145,3.1,4.933,0,8.837-1.344,9.043-3a3.065,3.065,0,0,1,.205.931v2.9a2.318,2.318,0,0,1-.925,1.759c-3.8.206-6.987,1.137-7.809,2.483h-0.514Zm19.421,12.519c0,2.277-4.213,4.139-9.351,4.139s-9.351-1.862-9.351-4.139v-2.9a1.756,1.756,0,0,1,.309-1.035c1.027,1.759,4.727,3.1,9.042,3.1,4.419,0,8.118-1.346,9.043-3.207a2.33,2.33,0,0,1,.308,1.035v3Zm0.206-5.9c0,2.276-4.213,4.139-9.351,4.139s-9.351-1.863-9.351-4.139v-3a1.55,1.55,0,0,1,.2-0.931c0.206,1.656,4.111,3,9.043,3s8.837-1.345,9.042-3a1.367,1.367,0,0,1,.411.931v3Z" transform="translate(-670 -190)"/>
</svg>
