<svg id="logo" xmlns="http://www.w3.org/2000/svg" xmlns:xlink="http://www.w3.org/1999/xlink" width="442" height="60" viewBox="0 0 442 60">
  <metadata><?xpacket begin="﻿" id="W5M0MpCehiHzreSzNTczkc9d"?>
<x:xmpmeta xmlns:x="adobe:ns:meta/" x:xmptk="Adobe XMP Core 5.6-c140 79.160451, 2017/05/06-01:08:21        ">
   <rdf:RDF xmlns:rdf="http://www.w3.org/1999/02/22-rdf-syntax-ns#">
      <rdf:Description rdf:about=""/>
   </rdf:RDF>
</x:xmpmeta>
                                                                                                    
                                                                                                    
                                                                                                    
                                                                                                    
                                                                                                    
                                                                                                    
                                                                                                    
                                                                                                    
                                                                                                    
                                                                                                    
                                                                                                    
                                                                                                    
                                                                                                    
                                                                                                    
                                                                                                    
                                                                                                    
                                                                                                    
                                                                                                    
                                                                                                    
                                                                                                    
                           
<?xpacket end="w"?></metadata>
<defs>
    <style>
      .cls-1, .cls-4 {
        fill: #18ccba;
      }

      .cls-1, .cls-3 {
        fill-rule: evenodd;
      }

      .cls-2 {
        filter: url(#filter);
      }

      .cls-3 {
        fill: #fff;
      }
    </style>
    <filter id="filter" filterUnits="userSpaceOnUse">
      <feFlood result="flood" flood-color="#18ccba"/>
      <feComposite result="composite" operator="in" in2="SourceGraphic"/>
      <feBlend result="blend" in2="SourceGraphic"/>
    </filter>
  </defs>
  <path id="WELCOME" class="cls-1" d="M1001.02,233.9l-3.951,18.492a16.9,16.9,0,0,0-.4,2.988h-0.088a18.964,18.964,0,0,0-.439-2.883l-4.606-18.6h-6.17L980.3,252.264a15.928,15.928,0,0,0-.545,3.146h-0.123a20.259,20.259,0,0,0-.369-3.058L975.22,233.9h-6.364l7.26,27.228h6.7l4.747-17.754a19.054,19.054,0,0,0,.492-3.006h0.07a14.772,14.772,0,0,0,.439,3.006l4.641,17.754h6.451l7.257-27.228h-5.89Zm29.11,22.482h-10.32v-6.592h9v-4.728h-9v-6.416h9.69V233.9h-15.49v27.228h16.12v-4.746Zm24.04,0H1044V233.9h-5.8v27.228h15.97v-4.746Zm26.74-1.564a12.846,12.846,0,0,1-6.63,1.757,7.983,7.983,0,0,1-6.14-2.443,9.108,9.108,0,0,1-2.26-6.451,9.316,9.316,0,0,1,2.39-6.662,8.327,8.327,0,0,1,6.38-2.549,12.16,12.16,0,0,1,6.26,1.617v-5.607a18.7,18.7,0,0,0-6.68-1.037,13.969,13.969,0,0,0-10.42,4.1,14.418,14.418,0,0,0-4.03,10.556q0,6.135,3.61,9.817t9.76,3.683a17.678,17.678,0,0,0,7.76-1.459v-5.326Zm10.36,2.944a13.772,13.772,0,0,0,19.21-.123,14.557,14.557,0,0,0,3.7-10.327,14.218,14.218,0,0,0-3.56-9.985,12.145,12.145,0,0,0-9.4-3.884,12.844,12.844,0,0,0-9.87,4.016,14.682,14.682,0,0,0-3.73,10.415A13.781,13.781,0,0,0,1091.27,257.757ZM1095.68,241a6.406,6.406,0,0,1,5.37-2.531,6.107,6.107,0,0,1,5.2,2.47,11,11,0,0,1,1.85,6.723,10.266,10.266,0,0,1-1.9,6.5,6.378,6.378,0,0,1-5.31,2.417,6.245,6.245,0,0,1-5.26-2.522A11.973,11.973,0,0,1,1095.68,241Zm57.36,20.127V233.9h-8.21l-5.89,16.418c-0.38,1.089-.76,2.379-1.12,3.867h-0.13a19.484,19.484,0,0,0-1-3.832l-5.87-16.453h-8.44v27.228h5.24v-15.4c0-2.3-.07-4.588-0.23-6.873h0.16c0.41,2,.7,3.228.86,3.673l6.81,18.6h4.62l6.71-18.773a29.53,29.53,0,0,0,.85-3.5h0.14c-0.15,2.308-.23,4.224-0.23,5.748v16.523h5.73Zm26.08-4.746H1168.8v-6.592h9v-4.728h-9v-6.416h9.69V233.9H1163v27.228h16.12v-4.746Z" transform="translate(-739.56 -219.5)"/>
  <g id="组_1_拷贝" data-name="组 1 拷贝" class="cls-2">
    <path id="形状_1" data-name="形状 1" class="cls-3" d="M768.067,277s0.077-4.784,0-15.278c0-.536,0-1.82,0-3.055-5.672-8.963-10.933-16.916-16.605-25.878-0.437-.691-0.922-1.644-1.795-1.622-2.494.062-4.964,0-7.667,0,2.243,3.871,6.07,9.743,18.4,29.027,0.056,0.659-.007,2.388,0,3.056,0.05,4.617,0,9,0,13.75h7.667Zm12.266-45.833c-0.61.062-1.054,1.171-1.264,1.492-1.6,2.456-3.166,4.937-4.746,7.408-0.187.293-.408,0.566-0.708,0.978-1.006-1.572-1.921-3-2.832-4.424-2.9-4.546-5.82-9.085-8.694-13.648a1.8,1.8,0,0,0-1.784-.965c-2.053.055-4.109,0-6.163-.007-0.4,0-.792,0-1.5,0l21.021,32.5c4.8-7.562,9.489-15.689,14.335-23.33C785.168,231.167,782.9,231.106,780.333,231.167Z" transform="translate(-739.56 -219.5)"/>
    <path id="亿链" class="cls-3" d="M820.968,256.263H836.32c3.071,0,4.587-1.428,4.587-4.661v-2.858h-3.866v2.143c0,1.466-.607,2.181-2.047,2.181h-9.932c-1.175,0-1.63-.677-0.947-1.692L838.481,228.9v-3.083H819.755v3.2h12.661L818.694,251C816.95,253.82,818.2,256.263,820.968,256.263Zm-10.31,1.128h4.624v-25.94a29.263,29.263,0,0,0,3.033-8.045h-4.928c-1.365,6.5-3.3,9.136-6.861,11.5v2.744a19.727,19.727,0,0,0,4.132-1.691v21.428Zm56.136-27.556h3.184a45.624,45.624,0,0,1-2.8,7.18v2.97h6.255v4.248h-6.407v2.933h6.407v5.263h4.132v-5.263H882.6v-2.933H877.56v-4.248h4.4v-2.97h-4.4V231.94h-4.132v5.075h-2.654a44.593,44.593,0,0,0,3.033-7.18H882.3V226.9h-7.544c0.342-1.128.645-2.331,0.986-3.609h-4.321c-0.228,1.278-.455,2.481-0.721,3.609h-3.9v2.932Zm-8.719,27.556c2.54-.752,4.094-1.616,5.307-3.571,1.213,1.992,3.033,2.819,6.255,2.819H882.98v-3.083H870.168c-3.109,0-4.814-1.691-4.814-4.887V234.121h-6.1V236.9h1.971V249.12a5.388,5.388,0,0,1-3.147,5.339v2.932Zm-9.059-20.714h2.5v5.3h-3.147v2.932h3.147v11.917a19.785,19.785,0,0,0,6.937-4.022v-3.083a29.031,29.031,0,0,1-2.768,1.692v-6.5h3.3v-2.932h-3.3v-5.3h2.692v-2.82h-9.363v2.82Zm-0.721-3.835a9.789,9.789,0,0,0,4.777-2.969h5.951V226.94h-4.245a16.529,16.529,0,0,0,.909-3.534h-4.018c-0.417,3.346-1.364,5.188-3.374,6.955v2.481Zm13.344-1.654h3.866a26.9,26.9,0,0,0-2.54-7.293H859.44A29.546,29.546,0,0,1,861.639,231.188Z" transform="translate(-739.56 -219.5)"/>
    <path id="yilian" class="cls-3" d="M822.51,263.206h-2.666l-4.318,6.279-4.353-6.279h-2.718l5.832,8.087v5.647h2.323v-5.63Zm5.418,13.751V263.206h-2.34v13.751h2.34Zm14.278-1.518h-7.673V263.206h-2.322V276.94h10v-1.5Zm6.02,1.518V263.206h-2.34v13.751h2.34Zm5.573-.017,1.479-3.753h6.279l1.5,3.753h2.477L859.8,263.206h-2.787l-5.695,13.734H853.8Zm4.61-11.635,2.563,6.415h-5.109Zm20.2,11.652h2.254V263.206h-2.323V273.75l-7.552-10.527h-2.339V276.94H871V266.482Z" transform="translate(-739.56 -219.5)"/>
  </g>
  <rect id="矩形_4" data-name="矩形 4" class="cls-4" x="183.44" y="19.5" width="4" height="20"/>
</svg>
