<svg id="icon_store_cardmember" xmlns="http://www.w3.org/2000/svg" width="60" height="60" viewBox="0 0 60 60">
  <metadata><?xpacket begin="﻿" id="W5M0MpCehiHzreSzNTczkc9d"?>
<x:xmpmeta xmlns:x="adobe:ns:meta/" x:xmptk="Adobe XMP Core 5.6-c140 79.160451, 2017/05/06-01:08:21        ">
   <rdf:RDF xmlns:rdf="http://www.w3.org/1999/02/22-rdf-syntax-ns#">
      <rdf:Description rdf:about=""/>
   </rdf:RDF>
</x:xmpmeta>
                                                                                                    
                                                                                                    
                                                                                                    
                                                                                                    
                                                                                                    
                                                                                                    
                                                                                                    
                                                                                                    
                                                                                                    
                                                                                                    
                                                                                                    
                                                                                                    
                                                                                                    
                                                                                                    
                                                                                                    
                                                                                                    
                                                                                                    
                                                                                                    
                                                                                                    
                                                                                                    
                           
<?xpacket end="w"?></metadata>
<defs>
    <style>
      .cls-1 {
        fill: #bc8dee;
      }

      .cls-2 {
        fill: #fff;
        fill-rule: evenodd;
      }
    </style>
  </defs>
  <circle id="椭圆_3_拷贝_5" data-name="椭圆 3 拷贝 5" class="cls-1" cx="30" cy="30" r="30"/>
  <path id="形状_9" data-name="形状 9" class="cls-2" d="M1700.72,331h-21.86a3.1,3.1,0,0,1-3.08-3.111V312.107a3.1,3.1,0,0,1,3.08-3.111h21.86a3.1,3.1,0,0,1,3.08,3.111V327.89A3.1,3.1,0,0,1,1700.72,331Zm-21.86-20.45a1.55,1.55,0,0,0-1.54,1.556V327.89a1.549,1.549,0,0,0,1.54,1.556h21.86a1.549,1.549,0,0,0,1.54-1.556V312.107a1.55,1.55,0,0,0-1.54-1.556h-21.86Zm19.7,9.414h-2.58v1.742h2.54a0.649,0.649,0,0,0,.42-0.113,0.558,0.558,0,0,0,.1-0.369V320.5a0.692,0.692,0,0,0-.11-0.429A0.515,0.515,0,0,0,1698.56,319.965Zm-22.01-5.718v15.976h26.48V314.247h-26.48ZM1684.68,326h-3.04l-2.34-7.538h1.62l1.86,6.04h0.72l1.82-6.04h1.61Zm6.73,0h-1.62v-7.538h1.62V326Zm9.21-4.674a1.948,1.948,0,0,1-.12.693,1.686,1.686,0,0,1-.35.564,1.9,1.9,0,0,1-.67.466,2.186,2.186,0,0,1-.84.161h-2.65V326h-1.59v-7.538h4.29a1.867,1.867,0,0,1,1.41.549,1.954,1.954,0,0,1,.52,1.417v0.9Z" transform="translate(-1660 -290)"/>
</svg>
