<svg id="icon_sales_volume" xmlns="http://www.w3.org/2000/svg" width="60" height="60" viewBox="0 0 60 60">
  <metadata><?xpacket begin="﻿" id="W5M0MpCehiHzreSzNTczkc9d"?>
<x:xmpmeta xmlns:x="adobe:ns:meta/" x:xmptk="Adobe XMP Core 5.6-c140 79.160451, 2017/05/06-01:08:21        ">
   <rdf:RDF xmlns:rdf="http://www.w3.org/1999/02/22-rdf-syntax-ns#">
      <rdf:Description rdf:about=""/>
   </rdf:RDF>
</x:xmpmeta>
                                                                                                    
                                                                                                    
                                                                                                    
                                                                                                    
                                                                                                    
                                                                                                    
                                                                                                    
                                                                                                    
                                                                                                    
                                                                                                    
                                                                                                    
                                                                                                    
                                                                                                    
                                                                                                    
                                                                                                    
                                                                                                    
                                                                                                    
                                                                                                    
                                                                                                    
                                                                                                    
                           
<?xpacket end="w"?></metadata>
<defs>
    <style>
      .cls-1 {
        fill: #8792f2;
      }

      .cls-2 {
        fill: #fff;
        fill-rule: evenodd;
      }
    </style>
  </defs>
  <circle id="椭圆_3_拷贝" data-name="椭圆 3 拷贝" class="cls-1" cx="30" cy="30" r="30"/>
  <path id="形状_3" data-name="形状 3" class="cls-2" d="M948.971,233.248a2.278,2.278,0,0,1-.225.183l2.205,0.983a2.388,2.388,0,0,0,3.151-1.2l4.13-9.193Zm9.618-27.277h-8.01a3.2,3.2,0,0,0-2.258.932l-13.229,13.178a3.172,3.172,0,0,0,0,4.5l7.95,7.92a3.2,3.2,0,0,0,4.515,0l13.132-13.081a3.175,3.175,0,0,0,.934-2.187l0.158-8.017A3.187,3.187,0,0,0,958.589,205.971Zm-2.971,8.173a2.4,2.4,0,1,1,2.409-2.4A2.405,2.405,0,0,1,955.618,214.144Z" transform="translate(-918 -190)"/>
</svg>
