<svg id="icon_commodity_price" xmlns="http://www.w3.org/2000/svg" width="60" height="60" viewBox="0 0 60 60">
  <metadata><?xpacket begin="﻿" id="W5M0MpCehiHzreSzNTczkc9d"?>
<x:xmpmeta xmlns:x="adobe:ns:meta/" x:xmptk="Adobe XMP Core 5.6-c140 79.160451, 2017/05/06-01:08:21        ">
   <rdf:RDF xmlns:rdf="http://www.w3.org/1999/02/22-rdf-syntax-ns#">
      <rdf:Description rdf:about=""/>
   </rdf:RDF>
</x:xmpmeta>
                                                                                                    
                                                                                                    
                                                                                                    
                                                                                                    
                                                                                                    
                                                                                                    
                                                                                                    
                                                                                                    
                                                                                                    
                                                                                                    
                                                                                                    
                                                                                                    
                                                                                                    
                                                                                                    
                                                                                                    
                                                                                                    
                                                                                                    
                                                                                                    
                                                                                                    
                                                                                                    
                           
<?xpacket end="w"?></metadata>
<defs>
    <style>
      .cls-1 {
        fill: #7987e7;
      }

      .cls-2 {
        fill: #fff;
        fill-rule: evenodd;
      }
    </style>
  </defs>
  <circle id="椭圆_3_拷贝_5" data-name="椭圆 3 拷贝 5" class="cls-1" cx="30" cy="30" r="30"/>
  <path id="形状_6" data-name="形状 6" class="cls-2" d="M699.55,305.235a3.644,3.644,0,0,1,2.385.008l9.944,4.927a0.776,0.776,0,0,1-.008,1.386l-4.391,2.13-1.7.819-4.2,2.04a2.532,2.532,0,0,1-2.25-.017l-9.649-4.86a0.98,0.98,0,0,1,.008-1.747Zm-11.2,7.941,9.241,4.658a2.151,2.151,0,0,1,1.172,1.925V332.9a0.973,0.973,0,0,1-1.413.884l-8.8-4.546a2.99,2.99,0,0,1-1.6-2.662V314.064A0.973,0.973,0,0,1,688.351,313.176Zm23.9,0.1-10.691,5.169a1.976,1.976,0,0,0-1.106,1.782v13.386a1.066,1.066,0,0,0,1.547.969l10.89-5.618a2,2,0,0,0,1.073-1.778V314.378A1.2,1.2,0,0,0,712.249,313.275Zm-2.764,8.272,0.917-.526a0.152,0.152,0,0,1,.245.152v0.966a0.551,0.551,0,0,1-.245.433l-1.959,1.123v0.675l1.959-1.122a0.152,0.152,0,0,1,.245.152v0.965a0.551,0.551,0,0,1-.245.434l-1.714.982a0.548,0.548,0,0,0-.245.433v0.832a0.549,0.549,0,0,1-.246.434l-0.972.557a0.153,0.153,0,0,1-.246-0.152v-0.833a0.153,0.153,0,0,0-.245-0.152l-1.773,1.016a0.153,0.153,0,0,1-.245-0.153V326.8a0.551,0.551,0,0,1,.245-0.434l2.018-1.156v-0.676l-2.018,1.156a0.152,0.152,0,0,1-.245-0.152v-0.965a0.551,0.551,0,0,1,.245-0.434l1.014-.58a0.456,0.456,0,0,0,.193-0.584l-1.381-1.32a0.456,0.456,0,0,1,.193-0.584l1.133-.649a0.154,0.154,0,0,1,.2.008l1.18,1.284c0.1,0.106.3-.009,0.4-0.227l1.194-2.647a0.517,0.517,0,0,1,.2-0.234l1.131-.648c0.2-.116.317,0.093,0.2,0.355l-1.323,2.88C709.167,321.454,709.283,321.662,709.485,321.547Z" transform="translate(-670 -290)"/>
</svg>
