<svg id="icon_inventory" xmlns="http://www.w3.org/2000/svg" width="60" height="60" viewBox="0 0 60 60">
  <metadata><?xpacket begin="﻿" id="W5M0MpCehiHzreSzNTczkc9d"?>
<x:xmpmeta xmlns:x="adobe:ns:meta/" x:xmptk="Adobe XMP Core 5.6-c140 79.160451, 2017/05/06-01:08:21        ">
   <rdf:RDF xmlns:rdf="http://www.w3.org/1999/02/22-rdf-syntax-ns#">
      <rdf:Description rdf:about=""/>
   </rdf:RDF>
</x:xmpmeta>
                                                                                                    
                                                                                                    
                                                                                                    
                                                                                                    
                                                                                                    
                                                                                                    
                                                                                                    
                                                                                                    
                                                                                                    
                                                                                                    
                                                                                                    
                                                                                                    
                                                                                                    
                                                                                                    
                                                                                                    
                                                                                                    
                                                                                                    
                                                                                                    
                                                                                                    
                                                                                                    
                           
<?xpacket end="w"?></metadata>
<defs>
    <style>
      .cls-1 {
        fill: #58637d;
      }

      .cls-2 {
        fill: #fff;
        fill-rule: evenodd;
      }
    </style>
  </defs>
  <circle id="椭圆_3_拷贝_5" data-name="椭圆 3 拷贝 5" class="cls-1" cx="30" cy="30" r="30"/>
  <path id="形状_8" data-name="形状 8" class="cls-2" d="M1428.96,326.647c0-.882.01-1.764,0-2.646a1.79,1.79,0,0,1,.93-1.65q2.28-1.346,4.56-2.675a1.658,1.658,0,0,1,1.75,0q2.28,1.325,4.56,2.676a1.815,1.815,0,0,1,.94,1.648v5.328a1.81,1.81,0,0,1-.94,1.649q-2.265,1.329-4.53,2.657a1.689,1.689,0,0,1-1.81,0c-1.5-.876-2.99-1.76-4.49-2.64a1.813,1.813,0,0,1-.97-1.7C1428.97,328.412,1428.96,327.529,1428.96,326.647Zm27.99,0.04c0,0.882,0,1.764.01,2.646a1.792,1.792,0,0,1-.94,1.645c-1.52.895-3.03,1.792-4.55,2.676a1.673,1.673,0,0,1-1.76,0q-2.28-1.327-4.55-2.678a1.819,1.819,0,0,1-.94-1.649V324a1.794,1.794,0,0,1,.92-1.627q2.31-1.381,4.64-2.728a1.586,1.586,0,0,1,1.63,0q2.37,1.36,4.71,2.766a1.682,1.682,0,0,1,.83,1.521C1456.96,324.851,1456.95,325.769,1456.95,326.687Zm-20.4-13.367v-2.61a1.8,1.8,0,0,1,.96-1.7c1.5-.876,2.99-1.764,4.49-2.646a1.693,1.693,0,0,1,1.84,0q2.265,1.33,4.52,2.665a1.758,1.758,0,0,1,.93,1.615v5.364a1.737,1.737,0,0,1-.87,1.574c-1.54.916-3.07,1.833-4.61,2.731a1.7,1.7,0,0,1-1.79,0c-1.53-.894-3.05-1.806-4.57-2.712a1.761,1.761,0,0,1-.9-1.631V313.32Z" transform="translate(-1413 -290)"/>
</svg>
