<svg id="icon_member-_recharge" xmlns="http://www.w3.org/2000/svg" width="60" height="60" viewBox="0 0 60 60">
  <metadata><?xpacket begin="﻿" id="W5M0MpCehiHzreSzNTczkc9d"?>
<x:xmpmeta xmlns:x="adobe:ns:meta/" x:xmptk="Adobe XMP Core 5.6-c140 79.160451, 2017/05/06-01:08:21        ">
   <rdf:RDF xmlns:rdf="http://www.w3.org/1999/02/22-rdf-syntax-ns#">
      <rdf:Description rdf:about=""/>
   </rdf:RDF>
</x:xmpmeta>
                                                                                                    
                                                                                                    
                                                                                                    
                                                                                                    
                                                                                                    
                                                                                                    
                                                                                                    
                                                                                                    
                                                                                                    
                                                                                                    
                                                                                                    
                                                                                                    
                                                                                                    
                                                                                                    
                                                                                                    
                                                                                                    
                                                                                                    
                                                                                                    
                                                                                                    
                                                                                                    
                           
<?xpacket end="w"?></metadata>
<defs>
    <style>
      .cls-1 {
        fill: #89c3f7;
      }

      .cls-2 {
        fill: #fff;
        fill-rule: evenodd;
      }
    </style>
  </defs>
  <circle id="椭圆_3_拷贝_4" data-name="椭圆 3 拷贝 4" class="cls-1" cx="30" cy="30" r="30"/>
  <path id="形状_5" data-name="形状 5" class="cls-2" d="M1702.22,220.335h-2.75V209a3.021,3.021,0,0,0-3.02-3h-13.2a3.029,3.029,0,0,0-3.03,3v11.332h-2.69a1.211,1.211,0,0,0-.84,2.1l11.55,10.643a2.618,2.618,0,0,0,3.56-.021l11.27-10.632A1.211,1.211,0,0,0,1702.22,220.335Zm-9.28-2.834h1.57a0.419,0.419,0,0,1,.42.415v1.368a0.419,0.419,0,0,1-.42.416h-3.35v0.958h3.35a0.419,0.419,0,0,1,.42.415v1.368a0.419,0.419,0,0,1-.42.415h-2.93a0.419,0.419,0,0,0-.42.415v1.18a0.413,0.413,0,0,1-.42.415h-1.66a0.41,0.41,0,0,1-.41-0.415v-1.18a0.419,0.419,0,0,0-.42-0.415h-3.03a0.419,0.419,0,0,1-.42-0.415v-1.368a0.419,0.419,0,0,1,.42-0.415h3.45V219.7h-3.45a0.419,0.419,0,0,1-.42-0.416v-1.368a0.419,0.419,0,0,1,.42-0.415h1.73a0.413,0.413,0,0,0,.33-0.671l-2.36-2.992a0.416,0.416,0,0,1,.33-0.671h1.94a0.43,0.43,0,0,1,.34.173l2.01,2.778a0.422,0.422,0,0,0,.68,0l2.04-2.782a0.417,0.417,0,0,1,.34-0.171h1.93a0.413,0.413,0,0,1,.33.663l-2.25,3.008A0.413,0.413,0,0,0,1692.94,217.5Z" transform="translate(-1660 -190)"/>
</svg>
