<svg id="home_logo" xmlns="http://www.w3.org/2000/svg" width="133.91" height="58" viewBox="0 0 133.91 58">
  <metadata><?xpacket begin="﻿" id="W5M0MpCehiHzreSzNTczkc9d"?>
<x:xmpmeta xmlns:x="adobe:ns:meta/" x:xmptk="Adobe XMP Core 5.6-c140 79.160451, 2017/05/06-01:08:21        ">
   <rdf:RDF xmlns:rdf="http://www.w3.org/1999/02/22-rdf-syntax-ns#">
      <rdf:Description rdf:about=""/>
   </rdf:RDF>
</x:xmpmeta>
                                                                                                    
                                                                                                    
                                                                                                    
                                                                                                    
                                                                                                    
                                                                                                    
                                                                                                    
                                                                                                    
                                                                                                    
                                                                                                    
                                                                                                    
                                                                                                    
                                                                                                    
                                                                                                    
                                                                                                    
                                                                                                    
                                                                                                    
                                                                                                    
                                                                                                    
                                                                                                    
                           
<?xpacket end="w"?></metadata>
<defs>
    <style>
      .cls-1 {
        fill: #666;
        fill-rule: evenodd;
      }
    </style>
  </defs>
  <path id="形状_1" data-name="形状 1" class="cls-1" d="M1020.48,483s0.09-5.045,0-16.111v-3.222c-5.98-9.452-11.52-17.839-17.5-27.29-0.46-.728-0.98-1.733-1.9-1.71-2.626.066-5.23,0-8.08,0,2.365,4.082,6.4,10.274,19.4,30.611,0.06,0.695-.01,2.518,0,3.222,0.05,4.868,0,9.5,0,14.5h8.08Zm12.94-48.333c-0.65.065-1.11,1.235-1.34,1.574-1.69,2.589-3.33,5.206-5,7.811-0.2.309-.43,0.6-0.75,1.031-1.06-1.657-2.02-3.159-2.98-4.664-3.06-4.794-6.14-9.581-9.17-14.393a1.892,1.892,0,0,0-1.88-1.017c-2.16.057-4.33,0-6.5-.008-0.42,0-.83,0-1.58,0,7.45,11.52,14.74,22.781,22.17,34.269,5.05-7.974,10-16.544,15.11-24.6C1038.51,434.667,1036.13,434.6,1033.42,434.667Z" transform="translate(-993 -425)"/>
  <path id="亿链" class="cls-1" d="M1066.54,462.592h14.95c2.99,0,4.46-1.408,4.46-4.595v-2.816h-3.76v2.112c0,1.445-.59,2.149-1.99,2.149h-9.67c-1.15,0-1.59-.667-0.93-1.667l13.99-22.162v-3.039h-18.23v3.15h12.33l-13.37,21.68C1062.63,460.184,1063.84,462.592,1066.54,462.592ZM1056.5,463.7h4.5V438.133a29.125,29.125,0,0,0,2.96-7.93h-4.8c-1.33,6.411-3.21,9.005-6.68,11.34v2.7a19.081,19.081,0,0,0,4.02-1.668V463.7Zm54.66-27.164h3.1a45.2,45.2,0,0,1-2.73,7.078v2.928h6.09v4.187h-6.24v2.891h6.24v5.188h4.02v-5.188h4.91v-2.891h-4.91v-4.187h4.28v-2.928h-4.28v-5h-4.02v5h-2.58a44.7,44.7,0,0,0,2.95-7.078h8.27v-2.891h-7.35c0.33-1.112.63-2.3,0.96-3.558h-4.21c-0.22,1.26-.44,2.446-0.7,3.558h-3.8v2.891Zm-8.49,27.164c2.47-.741,3.99-1.593,5.17-3.52,1.18,1.964,2.95,2.779,6.09,2.779h12.99v-3.039h-12.48c-3.02,0-4.68-1.668-4.68-4.818V440.764h-5.95v2.743h1.92v12.044a5.314,5.314,0,0,1-3.06,5.263v2.89Zm-8.82-20.419h2.43v5.225h-3.06V451.4h3.06v11.747a19.206,19.206,0,0,0,6.76-3.965v-3.039a27.824,27.824,0,0,1-2.7,1.668V451.4h3.22V448.51h-3.22v-5.225h2.63v-2.78h-9.12v2.78Zm-0.7-3.781a9.55,9.55,0,0,0,4.65-2.927h5.79v-2.891h-4.13a16.774,16.774,0,0,0,.88-3.483h-3.91c-0.4,3.3-1.33,5.114-3.28,6.856V439.5Zm12.99-1.63h3.76a26.47,26.47,0,0,0-2.47-7.19H1104A29.437,29.437,0,0,1,1106.14,437.874Z" transform="translate(-993 -425)"/>
  <path id="yilian" class="cls-1" d="M1068.96,469.934h-2.48l-4.03,5.929-4.06-5.929h-2.53l5.43,7.637V482.9h2.17v-5.316Zm5.06,12.985V469.934h-2.18v12.985h2.18Zm13.32-1.434h-7.16V469.934h-2.17V482.9h9.33v-1.418Zm5.61,1.434V469.934h-2.18v12.985h2.18Zm5.2-.016,1.38-3.544h5.86l1.4,3.544h2.31l-5.35-12.969h-2.6l-5.31,12.969h2.31Zm4.3-10.987,2.39,6.057h-4.76Zm18.84,11h2.1V469.934h-2.16v9.956l-7.05-9.94H1112V482.9h2.2v-9.876Z" transform="translate(-993 -425)"/>
</svg>
