<svg id="banner_logo" xmlns="http://www.w3.org/2000/svg" width="89.031" height="36" viewBox="0 0 89.031 36">
  <metadata><?xpacket begin="﻿" id="W5M0MpCehiHzreSzNTczkc9d"?>
<x:xmpmeta xmlns:x="adobe:ns:meta/" x:xmptk="Adobe XMP Core 5.6-c140 79.160451, 2017/05/06-01:08:21        ">
   <rdf:RDF xmlns:rdf="http://www.w3.org/1999/02/22-rdf-syntax-ns#">
      <rdf:Description rdf:about=""/>
   </rdf:RDF>
</x:xmpmeta>
                                                                                                    
                                                                                                    
                                                                                                    
                                                                                                    
                                                                                                    
                                                                                                    
                                                                                                    
                                                                                                    
                                                                                                    
                                                                                                    
                                                                                                    
                                                                                                    
                                                                                                    
                                                                                                    
                                                                                                    
                                                                                                    
                                                                                                    
                                                                                                    
                                                                                                    
                                                                                                    
                           
<?xpacket end="w"?></metadata>
<defs>
    <style>
      .cls-1 {
        fill: #fff;
        fill-rule: evenodd;
      }
    </style>
  </defs>
  <path id="形状_1" data-name="形状 1" class="cls-1" d="M73,60s0.05-3.132,0-10c0-.351,0-1.191,0-2-3.7-5.866-7.13-11.072-10.829-16.938A1.649,1.649,0,0,0,61,30c-1.626.041-3.237,0-5,0,1.463,2.534,3.959,6.377,12,19,0.037,0.431,0,1.563,0,2,0.033,3.022,0,5.893,0,9h5Zm8-30a1.82,1.82,0,0,0-.824.977c-1.047,1.607-2.065,3.232-3.1,4.849-0.122.192-.266,0.37-0.461,0.64-0.656-1.028-1.253-1.961-1.847-2.9-1.894-2.976-3.8-5.947-5.67-8.933a1.172,1.172,0,0,0-1.164-.632c-1.338.036-2.679,0-4.019,0-0.258,0-.517,0-0.977,0l13.71,21.27C79.779,40.321,82.839,35,86,30,84.153,30,82.676,29.96,81,30Z" transform="translate(-56 -24)"/>
  <path id="亿链" class="cls-1" d="M107.673,47.333h9.247c1.849,0,2.762-.874,2.762-2.852V42.733h-2.328v1.311a1.116,1.116,0,0,1-1.233,1.334h-5.982c-0.708,0-.982-0.414-0.571-1.035l8.653-13.755V28.7H106.943v1.955h7.625L106.3,44.113C105.253,45.838,106.007,47.333,107.673,47.333Zm-6.21.69h2.786V32.152a18.1,18.1,0,0,0,1.826-4.922h-2.968c-0.822,3.979-1.986,5.59-4.132,7.039v1.679a11.749,11.749,0,0,0,2.488-1.035V48.023Zm33.81-16.861h1.918a28.1,28.1,0,0,1-1.689,4.393v1.817h3.767v2.6H135.41v1.794h3.859v3.22h2.488v-3.22h3.037V39.973h-3.037v-2.6h2.649V35.556h-2.649V32.451h-2.488v3.105h-1.6a27.563,27.563,0,0,0,1.826-4.393h5.114V29.368h-4.543c0.2-.69.388-1.426,0.594-2.208h-2.6c-0.137.782-.274,1.518-0.434,2.208h-2.352v1.794Zm-5.251,16.861a4.911,4.911,0,0,0,3.2-2.185c0.73,1.219,1.826,1.725,3.767,1.725h8.036V45.677h-7.717c-1.872,0-2.9-1.035-2.9-2.99v-8.9H130.73v1.7h1.187v7.476a3.3,3.3,0,0,1-1.9,3.266v1.794Zm-5.456-12.674h1.507v3.243h-1.895v1.794h1.895v7.292a11.878,11.878,0,0,0,4.178-2.461V43.331a17.466,17.466,0,0,1-1.667,1.035V40.387h1.986V38.592h-1.986V35.349h1.621V33.624h-5.639v1.725ZM124.132,33a5.882,5.882,0,0,0,2.877-1.817h3.584V29.391h-2.557a10.272,10.272,0,0,0,.548-2.162h-2.42a6,6,0,0,1-2.032,4.255V33Zm8.036-1.012H134.5a16.613,16.613,0,0,0-1.53-4.463h-2.123A18.275,18.275,0,0,1,132.168,31.991Z" transform="translate(-56 -24)"/>
  <path id="yilian" class="cls-1" d="M109.173,51.89h-1.538l-2.491,3.68-2.511-3.68h-1.568l3.364,4.74v3.31h1.34v-3.3Zm3.127,8.06V51.89h-1.35v8.06h1.35Zm8.238-.89h-4.426V51.89h-1.34v8.05h5.766V59.06Zm3.474,0.89V51.89h-1.35v8.06h1.35Zm3.216-.01,0.854-2.2H131.7l0.864,2.2H134l-3.305-8.05h-1.608L125.8,59.94h1.429Zm2.66-6.82,1.479,3.76h-2.948Zm11.652,6.83h1.3V51.89H141.5v6.18l-4.358-6.17h-1.349v8.04h1.359V53.81Z" transform="translate(-56 -24)"/>
</svg>
